<?xml version="1.0" encoding="utf-8"?>
<!-- Generator: Adobe Illustrator 19.1.0, SVG Export Plug-In . SVG Version: 6.00 Build 0)  -->
<svg version="1.1" id="Calque_1" xmlns="http://www.w3.org/2000/svg" xmlns:xlink="http://www.w3.org/1999/xlink" x="0px" y="0px"
	 viewBox="0 0 74 63.3" style="enable-background:new 0 0 74 63.3;" xml:space="preserve">
<style type="text/css">
	.st0{fill:#F5A623;}
</style>
<g>
	<circle class="st0" cx="41.9" cy="11.5" r="1.2"/>
	<circle class="st0" cx="27.7" cy="5.7" r="1.2"/>
	<circle class="st0" cx="7.1" cy="26.3" r="1.2"/>
	<circle class="st0" cx="13.3" cy="11.7" r="1.2"/>
</g>
<path class="st0" d="M45.8,16.1c-1.9,0-3.7,0.2-5.5,0.7c-2.9-3.8-7.5-6.3-12.7-6.3c-8.8,0-15.9,7.1-15.9,15.9c0,2.6,0.6,5.1,1.8,7.2
	c-1.6,0.7-3,1.7-4.3,3c-5.9,5.9-6,15.4-0.2,21.2c2.3,2.3,5.3,2.9,7.6,3.1c0.5,0.1,12.1,0.3,20.9,0.3c1.6,0,3,0,4.3,0
	c1.2,0,2.3,0,3.2,0c1.9,0,3.2-0.1,4.3-0.3c0,0,0,0,0,0c0,0,0,0,0,0C60,58.8,68.1,49.3,68.1,38.9C68.1,26.3,58.1,16.1,45.8,16.1z
	 M13.7,26.4c0-7.7,6.2-13.9,13.9-13.9c4.3,0,8.1,2,10.6,5c-6.7,2.5-12.1,8.1-14.2,15.2c-2.9-0.8-5.9-0.7-8.8,0.2
	C14.3,31,13.7,28.8,13.7,26.4z M48.9,59.2C48.9,59.2,48.9,59.2,48.9,59.2c-1.3,0.3-3.7,0.2-7,0.2c-1.3,0-2.8,0-4.4,0
	c-9.3,0-20.1-0.3-20.6-0.3c-2.2-0.2-4.6-0.7-6.4-2.6c-5-5-4.9-13.3,0.2-18.4c3.6-3.6,9-4.9,13.7-3.2c0.5,0.2,1.1-0.1,1.3-0.6
	c0-0.1,0-0.1,0-0.2c0.1-0.1,0.2-0.2,0.2-0.4c2.4-9,10.8-15.6,19.9-15.6c11.2,0,20.2,9.3,20.2,20.8C66.1,48.3,58.7,57.1,48.9,59.2z"
	/>
</svg>
