<svg viewBox="0 0 49 48" xmlns="http://www.w3.org/2000/svg"><g fill="#7a8996" fill-rule="evenodd" transform="translate(.868)"><path d="m3 29.25h2.875c.647 0 1.22.413 1.424 1.027l.547 1.64c.182.543.043 1.132-.361 1.537l-1.925 1.924c-.567.567-.88 1.321-.88 2.123 0 .802.313 1.556.88 2.123l2.815 2.816c.567.567 1.321.88 2.123.88.802 0 1.556-.313 2.123-.88l1.924-1.924c.399-.398 1-.54 1.536-.362l1.641.547c.614.205 1.027.777 1.027 1.424v2.876c0 1.655 1.346 3 3 3h4.497c1.655 0 3-1.346 3-3v-2.876c0-.647.413-1.219 1.027-1.424l1.641-.547c.535-.178 1.138-.036 1.536.362l1.924 1.924c.567.567 1.321.88 2.123.88.802 0 1.556-.313 2.123-.88l2.816-2.816c.567-.567.88-1.321.88-2.123 0-.802-.313-1.556-.88-2.123l-1.924-1.924c-.405-.405-.544-.994-.362-1.537l.546-1.64c.205-.614.778-1.027 1.425-1.027h2.876c1.655 0 3-1.346 3-3v-4.497c0-1.655-1.346-3-3-3h-2.876c-.647 0-1.22-.413-1.424-1.027l-.547-1.64c-.181-.543-.043-1.132.362-1.537l1.924-1.924c.567-.567.88-1.321.88-2.123 0-.802-.313-1.556-.88-2.123l-2.816-2.815c-.567-.567-1.321-.88-2.123-.88-.802 0-1.556.313-2.123.88l-1.924 1.924c-.398.399-1 .541-1.536.362l-1.641-.547c-.614-.205-1.027-.777-1.027-1.424v-2.875c0-1.655-1.346-3-3-3h-4.497c-1.655 0-3 1.346-3 3v2.875c0 .647-.413 1.22-1.027 1.424l-1.641.547c-.533.179-1.137.037-1.536-.362l-1.924-1.924c-.567-.567-1.321-.88-2.123-.88-.802 0-1.556.313-2.123.88l-2.815 2.815c-.567.567-.88 1.321-.88 2.123 0 .802.313 1.556.88 2.123l1.925 1.924c.404.405.543.994.361 1.537l-.546 1.64c-.205.614-.778 1.027-1.425 1.027h-2.875c-1.655 0-3 1.346-3 3v4.497c0 1.655 1.346 3 3 3m-1.502-7.499c0-.828.674-1.502 1.502-1.502h2.875c1.294 0 2.438-.825 2.849-2.053l.546-1.64c.361-1.085.084-2.262-.724-3.071l-1.925-1.924c-.283-.284-.44-.661-.44-1.062 0-.401.157-.778.44-1.062l2.816-2.816c.567-.567 1.557-.567 2.124 0l1.924 1.924c.796.796 2 1.082 3.071.725l1.641-.547c1.227-.409 2.052-1.553 2.052-2.848v-2.875c0-.828.674-1.502 1.502-1.502h4.497c.827 0 1.502.674 1.502 1.502v2.875c0 1.295.825 2.438 2.052 2.848l1.641.547c1.067.356 2.276.071 3.071-.725l1.924-1.924c.567-.567 1.557-.567 2.124 0l2.816 2.816c.284.284.44.661.44 1.062 0 .401-.157.778-.44 1.062l-1.924 1.924c-.809.809-1.087 1.986-.725 3.071l.547 1.641c.41 1.227 1.554 2.052 2.848 2.052h2.876c.828 0 1.502.674 1.502 1.502v4.497c0 .828-.673 1.502-1.502 1.502h-2.876c-1.294 0-2.438.825-2.848 2.053l-.546 1.64c-.361 1.085-.084 2.262.725 3.071l1.924 1.924c.284.284.44.661.44 1.062 0 .401-.157.778-.44 1.062l-2.816 2.816c-.567.567-1.557.567-2.124 0l-1.924-1.924c-.795-.796-2-1.081-3.071-.725l-1.641.547c-1.227.41-2.052 1.553-2.052 2.848v2.876c0 .828-.674 1.502-1.502 1.502h-4.497c-.828 0-1.502-.673-1.502-1.502v-2.876c0-1.294-.825-2.438-2.052-2.848l-1.641-.547c-.307-.102-.626-.154-.949-.154-.802 0-1.556.312-2.123.879l-1.924 1.924c-.567.567-1.557.567-2.124 0l-2.816-2.816c-.283-.284-.44-.661-.44-1.062 0-.401.157-.778.44-1.062l1.925-1.924c.808-.809 1.086-1.986.724-3.071l-.547-1.641c-.409-1.227-1.554-2.052-2.848-2.052h-2.875c-.827 0-1.502-.674-1.502-1.502v-4.497"/><path d="m24 29.25c.396 0 .797-.044 1.192-.132 1.951-.433 3.493-1.974 3.925-3.926.354-1.595-.019-3.226-1.021-4.475-1.251-1.558-3.293-2.279-5.289-1.834-1.951.433-3.493 1.974-3.925 3.926-.354 1.595.019 3.225 1.021 4.474 1 1.25 2.496 1.967 4.096 1.967m-3.653-6.117c.302-1.364 1.422-2.484 2.786-2.787.289-.063.581-.096.867-.096 1.144 0 2.209.512 2.927 1.405.716.893.982 2.064.727 3.212-.302 1.364-1.422 2.484-2.786 2.787-.289.063-.58.096-.866.096-1.144 0-2.21-.512-2.927-1.406-.716-.893-.982-2.064-.727-3.212"/></g></svg>