<?xml version="1.0" encoding="UTF-8" standalone="no"?>
<svg width="29px" height="30px" viewBox="0 0 29 30" version="1.1" xmlns="http://www.w3.org/2000/svg" xmlns:xlink="http://www.w3.org/1999/xlink">
    <!-- Generator: Sketch 3.6.1 (26313) - http://www.bohemiancoding.com/sketch -->
    <title>Shape</title>
    <desc>Created with Sketch.</desc>
    <defs></defs>
    <g id="Bulk-Optimize" stroke="none" stroke-width="1" fill="none" fill-rule="evenodd">
        <g id="Bulk-Optimize-Free-Account-Popup-0-Pricing-One-Time" transform="translate(-770.000000, -526.000000)" fill="#1F2332">
            <path d="M802.296271,541.590991 L799.162499,532.943366 C798.845155,532.07067 797.893123,531.634322 797.020427,531.951666 C796.147731,532.26901 795.711383,533.221042 796.028727,534.093738 L797.774119,538.933235 C793.608979,536.156474 788.650479,534.64909 783.572975,534.64909 C777.70211,534.64909 772.188258,536.553154 767.626438,540.162943 C766.912414,540.718295 766.79341,541.789331 767.348762,542.503355 C767.904114,543.217379 768.97515,543.336383 769.689174,542.781031 C773.695642,539.647259 778.49547,537.981203 783.612643,537.981203 C788.214131,537.981203 792.696615,539.409251 796.465075,541.987671 L791.585911,543.772731 C790.713215,544.090075 790.276867,545.042107 790.594211,545.914803 C790.832219,546.589159 791.466907,547.025507 792.141263,547.025507 C792.339603,547.025507 792.537943,546.985839 792.696615,546.906503 L801.344239,543.772731 L801.344239,543.772731 C802.177267,543.415719 802.613615,542.463687 802.296271,541.590991 L802.296271,541.590991 Z" id="Shape" transform="translate(784.700047, 539.436891) scale(-1, 1) rotate(-310.000000) translate(-784.700047, -539.436891) "></path>
        </g>
    </g>
</svg>