<svg width="36" height="47" viewBox="0 0 36 47" xmlns="http://www.w3.org/2000/svg"><g fill="none" fill-rule="evenodd" transform="translate(-594-569)"><path d="m13.304 31.3l-7.826 0c-.432 0-.783.351-.783.783 0 .432.351.783.783.783l7.826 0c.432 0 .783-.351.783-.783 0-.432-.351-.783-.783-.783m0-4.696l-7.826 0c-.432 0-.783.351-.783.783 0 .432.351.783.783.783l7.826 0c.432 0 .783-.351.783-.783 0-.432-.351-.783-.783-.783m0 9.391l-7.826 0c-.432 0-.783.351-.783.783 0 .432.351.783.783.783l7.826 0c.432 0 .783-.351.783-.783 0-.432-.351-.783-.783-.783m0 4.696l-7.826 0c-.432 0-.783.351-.783.783 0 .432.351.783.783.783l7.826 0c.432 0 .783-.351.783-.783 0-.432-.351-.783-.783-.783m-8.609-22.696c0 .432.351.783.783.783l25.04 0c.432 0 .783-.351.783-.783 0-.432-.351-.783-.783-.783l-25.04 0c-.432 0-.783.351-.783.783m30.522-18l-21.913 0c-.105 0-.207.022-.302.061-.045.019-.08.053-.121.08-.044.03-.094.05-.131.088l-12.522 12.522c-.036.036-.056.085-.085.127-.028.042-.064.078-.083.125-.039.095-.061.197-.061.302l0 32.87c0 .432.351.783.783.783l34.435 0c.432 0 .783-.351.783-.783l0-45.39c0-.432-.351-.783-.783-.783m-22.696 2.672l0 9.85-9.85 0 9.85-9.85m21.913 42.719l-32.87 0 0-31.3 11.739 0c.432 0 .783-.351.783-.783l0-11.739 20.348 0 0 43.826m-3.913-23.478l-25.04 0c-.432 0-.783.351-.783.783 0 .432.351.783.783.783l25.04 0c.432 0 .783-.351.783-.783 0-.432-.351-.783-.783-.783m0 4.696l-14.09 0c-.432 0-.783.351-.783.783l0 14.09c0 .011.006.019.006.03.003.063.019.121.036.182.011.039.017.08.034.116.022.047.056.086.086.128.03.041.056.083.094.117.009.009.014.02.023.03.03.025.066.033.097.052.045.028.091.058.142.077.05.017.1.023.152.031.038.003.072.02.111.02l14.09 0c.161 0 .302-.059.426-.144.014-.009.03-.005.044-.014.014-.011.02-.025.033-.036.044-.038.08-.081.114-.128.028-.038.055-.072.075-.111.022-.044.034-.091.049-.141.014-.052.028-.102.031-.155.002-.019.011-.033.011-.052l0-14.09c0-.434-.351-.784-.783-.784m-12.417 14.09l2.446-2.936 2.576 1.288c.34.171.75.072.977-.23l1.722-2.295 3.13 4.173-10.852 0m11.634-1.567l-3.287-4.383c-.296-.394-.958-.394-1.252 0l-1.957 2.608-2.547-1.273c-.327-.164-.72-.08-.952.199l-2.528 3.033 0-11.14 12.522 0 0 10.955m-9.391-6.259c.862 0 1.565-.703 1.565-1.565 0-.862-.703-1.565-1.565-1.565-.862 0-1.565.703-1.565 1.565 0 .862.703 1.565 1.565 1.565" transform="translate(594 569)" fill="#40b1d0" fill-rule="nonzero"/></g></svg>