<svg width="27" height="28" viewBox="0 0 27 28" xmlns="http://www.w3.org/2000/svg"><g fill="none" fill-rule="evenodd"><path d="m13.3.254c-.773 0-1.4.627-1.4 1.4l0 4.2c0 .773.627 1.4 1.4 1.4.773 0 1.4-.627 1.4-1.4l0-4.2c0-.773-.627-1.4-1.4-1.4m-8.422 3.478c-.358 0-.711.142-.984.416-.547.547-.547 1.444 0 1.991l2.975 2.953c.547.547 1.422.547 1.969 0 .547-.547.547-1.422 0-1.969l-2.953-2.975c-.273-.273-.648-.416-1.01-.416m16.844 0c-.358 0-.733.142-1.01.416l-2.953 2.975c-.547.547-.547 1.422 0 1.969.547.547 1.422.547 1.969 0l2.975-2.953c.547-.547.547-1.444 0-1.991-.273-.273-.626-.416-.984-.416m-20.322 8.422c-.773 0-1.4.627-1.4 1.4 0 .773.627 1.4 1.4 1.4l4.2 0c.773 0 1.4-.627 1.4-1.4 0-.773-.627-1.4-1.4-1.4l-4.2 0m19.6 0c-.773 0-1.4.627-1.4 1.4 0 .773.627 1.4 1.4 1.4l4.2 0c.773 0 1.4-.627 1.4-1.4 0-.773-.627-1.4-1.4-1.4l-4.2 0m-13.147 5.447c-.358 0-.711.142-.984.416l-2.975 2.953c-.547.547-.547 1.444 0 1.991.547.547 1.444.547 1.991 0l2.953-2.975c.547-.547.547-1.422 0-1.969-.273-.273-.626-.416-.984-.416m10.894 0c-.358 0-.711.142-.984.416-.547.547-.547 1.422 0 1.969l2.953 2.975c.547.547 1.444.547 1.991 0 .547-.547.547-1.444 0-1.991l-2.975-2.953c-.273-.273-.626-.416-.984-.416m-5.447 2.253c-.773 0-1.4.627-1.4 1.4l0 4.2c0 .773.627 1.4 1.4 1.4.773 0 1.4-.627 1.4-1.4l0-4.2c0-.773-.627-1.4-1.4-1.4" fill="#40b1d0" fill-rule="nonzero"/></g></svg>