<svg viewBox="0 0 90 64" xmlns="http://www.w3.org/2000/svg"><g fill="none" fill-rule="evenodd"><path d="m89.07 22.94c-.373-.551-.995-.881-1.66-.88h-13v-8c0-1.105-.895-2-2-2h-29.27l-3.54-10.27c-.277-.807-1.036-1.349-1.89-1.35h-35.13c-1.105 0-2 .895-2 2v59.12c0 0 0 .08 0 .13 0 .05 0 .11 0 .17.016.102.039.202.07.3 0 0 0 .09 0 .13.052.14.119.275.2.4.084.12.182.231.29.33l.11.09c.079.066.162.127.25.18l.13.07c.097.045.197.081.3.11h.12c.147.037.298.057.45.06h69.92c.179-.003.358-.03.53-.08h.12c.166-.056.324-.133.47-.23.141-.1.269-.217.38-.35l.08-.1c.109-.137.2-.289.27-.45l15-37.5c.252-.621.177-1.326-.2-1.88m-84.49-18.5h31.7l3.54 10.28c.063.175.151.34.26.49l.07.08c.105.131.226.249.36.35.148.101.31.182.48.24h.12c.169.049.344.076.52.08h28.79v6h-52.84c-.82-.001-1.557.499-1.86 1.26l-11.14 27.96v-46.74m66.48 55.12h-65.52l13.4-33.5h65.52l-13.4 33.5" fill="#626e7b" fill-rule="nonzero"/></g></svg>