<?xml version="1.0" encoding="UTF-8" standalone="no"?>
<svg width="256px" height="256px" viewBox="0 0 256 256" version="1.1" xmlns="http://www.w3.org/2000/svg" xmlns:xlink="http://www.w3.org/1999/xlink" xmlns:sketch="http://www.bohemiancoding.com/sketch/ns">
    <!-- Generator: Sketch 3.4.4 (17249) - http://www.bohemiancoding.com/sketch -->
    <title>WordPress Plugin </title>
    <desc>Created with Sketch.</desc>
    <defs></defs>
    <g id="Marketing-stuff" stroke="none" stroke-width="1" fill="none" fill-rule="evenodd" sketch:type="MSPage">
        <g id="WordPress-Plugin-" sketch:type="MSArtboardGroup">
            <g id="Group-+-Group" sketch:type="MSLayerGroup" transform="translate(-1.000000, 0.000000)">
                <g id="Group" transform="translate(0.626812, 0.000000)" sketch:type="MSShapeGroup">
                    <rect id="Rectangle-7" fill="#2E3243" x="0.373188406" y="0" width="256" height="256"></rect>
                    <path d="M81.9742306,158.483219 L54.1635666,109.918063 L64.2449323,103.97844 L61.2900493,96.6412582 L43.3869343,106.948252 L79.0193476,169.139602 L106.830012,153.06768 C107.003828,150.272563 107.351462,147.477446 107.699095,144.68233 L101.094062,147.302752 L81.9742306,158.483219 L81.9742306,158.483219 Z" id="Shape" fill="#FFFFFF"></path>
                    <path d="M70.6761484,87.033044 L79.0193476,83.8885375 L77.1073644,76.3766609 L60.7685993,82.6656738 L85.798197,148.875005 L108.741995,140.140265 C109.611078,136.821063 111.001611,133.501862 112.565961,130.357356 L90.3174299,138.917401 L70.6761484,87.033044 L70.6761484,87.033044 Z" id="Shape" fill="#FFFFFF"></path>
                    <path d="M114.477944,64.6721089 L103.179862,112.189096 L137.943192,105.026609 C140.028992,103.97844 142.114792,103.104966 144.374408,102.406187 C146.981658,101.532713 149.588908,100.833934 152.196157,100.309849 C155.324857,99.7857647 158.627373,99.4363751 161.92989,99.4363751 L162.103706,99.4363751 L164.710956,99.4363751 L172.185072,97.8641219 L150.284174,78.2983037 L141.593342,89.1293816 L114.477944,64.6721089 L114.477944,64.6721089 Z" id="Shape" fill="#FFFFFF"></path>
                    <ellipse id="Oval" fill="#FFFFFF" cx="156.367757" cy="64.1480245" rx="6.77884936" ry="6.81309739"></ellipse>
                    <path d="M116.563744,123.544258 C118.997177,119.875667 121.95206,116.731161 125.08076,113.761349 L98.4868124,119.176888 L87.1887302,64.3227193 L167.665839,47.7267129 L178.790105,102.056797 C181.744988,103.104966 184.699871,104.32783 187.480937,105.725388 L173.749422,38.4678882 L78.1502643,58.0337064 L92.5770463,128.435713 L116.563744,123.544258 L116.563744,123.544258 Z" id="Shape" fill="#FFFFFF"></path>
                    <ellipse id="Oval" fill="#00A8DC" cx="161.40844" cy="155.164018" rx="4.17159961" ry="4.19267532"></ellipse>
                    <path d="M162.277523,104.502524 C134.988309,104.502524 112.739778,126.863459 112.739778,154.465239 C112.739778,160.579557 113.782678,166.344485 115.868477,171.760024 L132.554876,171.760024 C130.121443,167.392654 128.557093,162.5012 128.035643,157.260356 L122.647327,157.260356 C121.082977,157.260356 120.040077,156.037492 120.040077,154.465239 C120.040077,152.892985 121.256794,151.670122 122.647327,151.670122 L128.035643,151.670122 C128.557093,144.158245 131.511976,137.519843 136.031209,132.104304 L132.207243,128.261018 C131.164343,127.212849 131.164343,125.465901 132.207243,124.417732 C133.250142,123.369563 134.988309,123.369563 136.031209,124.417732 L139.855175,128.261018 C145.243491,123.718953 151.848524,120.749141 159.32264,120.225057 L159.32264,114.634823 C159.32264,113.06257 160.539357,111.839706 161.92989,111.839706 C163.49424,111.839706 164.710956,113.06257 164.710956,114.634823 L164.710956,120.225057 C171.489806,120.749141 177.747205,123.369563 182.961704,127.387544 L185.916588,125.291206 C187.480937,124.068343 189.566737,124.243037 190.95727,125.640596 C192.347804,127.038154 192.52162,129.309187 191.304904,130.706745 L169.230189,162.15181 C165.232406,166.169791 158.975007,166.344485 154.803407,162.5012 C154.62959,162.326505 154.62959,162.326505 154.455774,162.15181 C150.457991,158.13383 150.457991,151.320732 154.455774,147.302752 C154.977224,146.778667 155.324857,146.429278 155.846307,146.079888 L155.846307,146.079888 L177.747205,131.056135 C173.227972,127.911628 167.839656,126.16468 161.92989,126.16468 C146.286391,126.16468 133.771592,138.917401 133.771592,154.639933 C133.771592,161.103641 135.857392,167.043265 139.507542,171.760024 L184.526054,171.760024 C188.176204,167.043265 190.262004,161.103641 190.262004,154.639933 C190.262004,150.971343 189.566737,147.652141 188.350021,144.507635 L192.347804,138.917401 C194.433603,142.935382 195.65032,147.302752 195.997953,152.019511 L201.386269,152.019511 C202.950619,152.019511 203.993519,153.242375 203.993519,154.814628 C203.993519,156.386881 202.776803,157.609745 201.386269,157.609745 L195.997953,157.609745 C195.65032,162.850589 194.08597,167.742044 191.47872,172.109414 L208.686569,172.109414 C210.598552,166.693875 211.815268,160.928946 211.815268,154.814628 C211.641452,126.863459 189.566737,104.502524 162.277523,104.502524 L162.277523,104.502524 Z" id="Shape" fill="#00A8DC"></path>
                </g>
                <g id="Group" transform="translate(43.000000, 194.489583)" fill="#FFFFFF" sketch:type="MSShapeGroup">
                    <path d="M3.77407837,0.466865079 L0.644354843,0.466865079 C0.30683564,0.466865079 0,0.776137858 0,1.11633791 L0,23.5386144 C0,23.8788144 0.30683564,24.1880872 0.644354843,24.1880872 L3.77407837,24.1880872 C4.11159757,24.1880872 4.41843321,23.8788144 4.41843321,23.5386144 L4.41843321,1.11633791 C4.38774965,0.776137858 4.08091401,0.466865079 3.77407837,0.466865079 L3.77407837,0.466865079 Z" id="Shape"></path>
                    <path d="M38.0093602,0.611552716 C37.9786767,0.333207215 37.7638917,0.11671627 37.395689,0.11671627 L36.8433848,0.11671627 C36.5365492,0.11671627 36.3831313,0.240425381 36.2603971,0.456916326 L28.8656582,16.446319 L28.7736075,16.446319 L21.3788686,0.456916326 C21.2868179,0.240425381 21.0720329,0.11671627 20.7958808,0.11671627 L20.2435767,0.11671627 C19.8753739,0.11671627 19.660589,0.364134493 19.6299054,0.611552716 L15.6410421,23.3740292 C15.579675,23.8379384 15.855827,24.1472112 16.2853969,24.1472112 L19.3230698,24.1472112 C19.6299054,24.1472112 19.9060575,23.8688657 19.9367411,23.6523747 L21.9004891,10.8175544 L21.9925398,10.8175544 L27.9451513,24.1162839 C28.0372019,24.3327748 28.2213033,24.4874112 28.528139,24.4874112 L29.1418102,24.4874112 C29.4486459,24.4874112 29.6327473,24.3327748 29.724798,24.1162839 L35.6160422,10.8175544 L35.7080929,10.8175544 L37.7025246,23.6523747 C37.7638917,23.899793 38.0400438,24.1472112 38.3468794,24.1472112 L41.4152358,24.1472112 C41.8448057,24.1472112 42.1209578,23.8379384 42.0289071,23.3740292 L38.0093602,0.611552716 L38.0093602,0.611552716 Z" id="Shape"></path>
                    <path d="M62.0639694,0.487843604 C61.9719187,0.271352659 61.8185008,0.11671627 61.4809816,0.11671627 L61.1434624,0.11671627 C60.8366268,0.11671627 60.683209,0.271352659 60.5604747,0.487843604 L50.0973794,23.2812474 C49.8825945,23.7142293 50.1587465,24.1472112 50.6803671,24.1472112 L53.5953057,24.1472112 C54.1476098,24.1472112 54.4237619,23.8070111 54.5771797,23.4668111 L56.2340922,19.8173923 L66.2983012,19.8173923 L67.9552136,23.4668111 C68.2006821,23.9307202 68.4154671,24.1472112 68.9370877,24.1472112 L71.8520263,24.1472112 C72.3429633,24.1472112 72.6191154,23.7142293 72.435014,23.2812474 L62.0639694,0.487843604 L62.0639694,0.487843604 Z M57.9216882,16.0442644 L61.2048296,8.59079041 L61.2968803,8.59079041 L64.6413887,16.0442644 L57.9216882,16.0442644 L57.9216882,16.0442644 Z" id="Shape"></path>
                    <path d="M100.514948,12.3090566 L94.0713998,12.3090566 C93.7031971,12.3090566 93.427045,12.5874021 93.427045,12.9585294 L93.427045,15.6182753 C93.427045,15.9584754 93.7031971,16.2368209 94.0713998,16.2368209 L96.7715535,16.2368209 L96.7715535,19.1130577 C96.0965151,19.3914032 94.6543875,19.9480942 92.7826901,19.9480942 C88.5483583,19.9480942 85.2345334,16.3914573 85.2345334,12.1853475 C85.2345334,7.94831041 88.5483583,4.3298189 92.7520066,4.3298189 C94.5930204,4.3298189 96.3726671,5.01021901 97.8147946,6.30916469 C98.1216303,6.58751019 98.4284659,6.58751019 98.6739344,6.30916469 L100.760417,4.11332796 C101.036569,3.83498246 101.005885,3.43292784 100.729733,3.15458234 C98.4591495,1.17523656 95.5442109,1.77635684e-15 92.5372216,1.77635684e-15 C85.8482047,1.77635684e-15 80.478581,5.44320091 80.478581,12.2162748 C80.478581,18.9893486 85.8482047,24.3397677 92.5372216,24.3397677 C97.4159083,24.3397677 100.883151,22.143931 100.883151,22.143931 C101.005885,22.0511491 101.159303,21.8655855 101.159303,21.58724 L101.159303,12.9276021 C101.097936,12.6183294 100.852467,12.3090566 100.514948,12.3090566 L100.514948,12.3090566 Z" id="Shape"></path>
                    <path d="M116.444092,0.466865079 L113.314368,0.466865079 C112.976849,0.466865079 112.670013,0.776137858 112.670013,1.11633791 L112.670013,23.5386144 C112.670013,23.8788144 112.976849,24.1880872 113.314368,24.1880872 L116.444092,24.1880872 C116.781611,24.1880872 117.088447,23.8788144 117.088447,23.5386144 L117.088447,1.11633791 C117.088447,0.776137858 116.781611,0.466865079 116.444092,0.466865079 L116.444092,0.466865079 Z" id="Shape"></path>
                    <path d="M144.252919,0.466865079 L130.56805,0.466865079 C130.199847,0.466865079 129.923695,0.776137858 129.923695,1.11633791 L129.923695,23.5386144 C129.923695,23.8788144 130.199847,24.1880872 130.56805,24.1880872 L133.66709,24.1880872 C134.004609,24.1880872 134.311444,23.8788144 134.311444,23.5386144 L134.311444,14.9717584 L142.596007,14.9717584 C142.933526,14.9717584 143.240362,14.6624856 143.240362,14.3222856 L143.240362,11.5388306 C143.240362,11.1986305 142.933526,10.8893577 142.596007,10.8893577 L134.311444,10.8893577 L134.311444,4.51833848 L144.252919,4.51833848 C144.621122,4.51833848 144.897274,4.2090657 144.897274,3.86886565 L144.897274,1.08541064 C144.897274,0.776137858 144.651805,0.466865079 144.252919,0.466865079 L144.252919,0.466865079 Z" id="Shape"></path>
                    <path d="M172.362315,0.466865079 L168.895072,0.466865079 C168.61892,0.466865079 168.465502,0.621501469 168.342768,0.776137858 L162.973144,8.56981188 L157.60352,0.776137858 C157.51147,0.652428747 157.327368,0.466865079 157.051216,0.466865079 L153.614657,0.466865079 C153.062353,0.466865079 152.816884,1.02355608 153.062353,1.45653797 L160.733244,12.7759217 L160.733244,23.5386144 C160.733244,23.8788144 161.009396,24.1880872 161.377599,24.1880872 L164.476639,24.1880872 C164.814158,24.1880872 165.120994,23.8788144 165.120994,23.5386144 L165.120994,12.7140671 L172.883935,1.42561069 C173.160087,0.992628803 172.883935,0.466865079 172.362315,0.466865079 L172.362315,0.466865079 Z" id="Shape"></path>
                </g>
            </g>
        </g>
    </g>
</svg>