<svg viewBox="0 0 51 50" xmlns="http://www.w3.org/2000/svg"><g fill="none" fill-rule="evenodd" transform="translate(1.5 1)"><path d="m41.36 22.552h-23.986c-.323-2.979-2.74-5.302-5.666-5.302-3.146 0-5.705 2.684-5.705 5.982 0 3.299 2.559 5.982 5.705 5.982 2.951 0 5.386-2.361 5.676-5.376h17.547v3.857c0 .355.287.643.643.643.355 0 .643-.287.643-.643v-3.857h4.499l-.009 5.703c-.001.355.287.726.642.726.355 0 .644-.368.644-.723l.01-6.306c0-.17-.067-.355-.188-.475-.12-.122-.284-.21-.455-.21m-29.652 5.376c-2.436 0-4.419-2.107-4.419-4.696 0-2.59 1.983-4.697 4.419-4.697 2.437 0 4.42 2.107 4.42 4.697 0 2.589-1.983 4.696-4.42 4.696" fill="#7a8996"/><circle stroke="#7a8996" stroke-width="2" cx="24" cy="24" r="24"/></g></svg>