<svg width="4519" height="1266" viewBox="0 0 4519 1266" fill="none" xmlns="http://www.w3.org/2000/svg">
<path fill-rule="evenodd" clip-rule="evenodd" d="M534.63 627.061C511.988 627.061 490.762 613.873 480.385 593.143L462.46 553.094H284.632L266.707 593.143C256.33 613.873 235.104 627.061 212.463 627.061H203.028L278.971 1205.13C282.745 1215.97 289.82 1215.97 294.065 1205.13L369.536 1020.45L435.102 1204.67C438.875 1215.5 445.951 1215.5 450.196 1204.67L537.931 627.535L534.63 627.061Z" fill="url(#paint0_linear_2765_37485)"/>
<path fill-rule="evenodd" clip-rule="evenodd" d="M455.364 537.104H292.157L267.157 593.17C258.667 610.129 242.158 622.376 224.233 625.673L281.78 982.317C285.553 988.916 292.629 988.916 296.874 982.317L370.458 870.661L437.911 981.849C442.156 988.443 448.76 988.443 453.005 981.849L518.099 624.732C502.061 620.02 487.91 608.715 480.363 593.17L455.364 537.104Z" fill="url(#paint1_linear_2765_37485)"/>
<path fill-rule="evenodd" clip-rule="evenodd" d="M480.396 593.148L373.322 354.288L266.719 593.148C262.946 600.216 258.229 606.342 252.568 611.522L296.907 848.5C299.266 851.797 305.398 852.739 309.643 848.5L369.077 769.821L428.51 848.027C432.284 852.739 438.887 851.797 441.246 848.027L490.302 608.225C486.529 603.513 483.227 598.801 480.396 593.148Z" fill="url(#paint2_linear_2765_37485)"/>
<path fill-rule="evenodd" clip-rule="evenodd" d="M31.7965 29.2067C28.4947 17.8997 35.0984 9.89052 46.4191 9.89052H140.286C146.89 9.89052 153.022 15.544 154.909 21.1976L223.776 292.096H227.078L351.134 10.8328C353.492 6.12147 358.209 1.88135 364.813 1.88135H379.436C386.511 1.88135 391.228 5.65036 393.114 10.8328L517.17 292.096H520.472L589.338 21.1976C590.754 15.544 597.357 9.89052 603.964 9.89052H697.827C709.152 9.89052 715.281 17.8997 712.453 29.2067L561.039 566.293C559.623 572.887 553.021 577.599 546.415 577.599H533.679C528.019 577.599 522.359 573.828 520 568.649L373.303 241.685H370.945L225.191 568.649C222.833 573.36 217.173 577.599 211.512 577.599H198.776C192.173 577.599 186.041 572.887 184.154 566.293L31.7965 29.2067Z" fill="#F3704D"/>
<path fill-rule="evenodd" clip-rule="evenodd" d="M795.944 24.9398C795.944 16.9307 802.546 9.86377 811.039 9.86377H1003.96C1102.54 9.86377 1183.21 89.9554 1183.21 186.536C1183.21 285.473 1102.54 366.507 1004.9 366.507H920.944V554.486C920.944 562.495 913.868 569.562 905.85 569.562H811.507C802.546 569.562 796.413 562.495 796.413 554.486V24.9398H795.944ZM996.885 249.667C1031.32 249.667 1060.09 222.342 1060.09 186.536C1060.09 153.086 1031.32 127.175 996.885 127.175H920.944V249.667H996.885Z" fill="#F3704D"/>
<path fill-rule="evenodd" clip-rule="evenodd" d="M1444.04 24.9666C1444.04 16.9575 1450.64 9.89062 1459.13 9.89062H1698.28C1794.51 9.89062 1872.81 87.6264 1872.81 182.794C1872.81 256.29 1824.22 315.652 1754.41 343.449L1863.85 546.505C1869.5 556.869 1863.85 569.59 1850.17 569.59H1743.56C1736.95 569.59 1732.24 565.819 1730.83 562.522L1624.22 350.516H1569.04V554.513C1569.04 562.522 1561.96 569.59 1553.94 569.59H1458.66C1449.7 569.59 1443.56 562.522 1443.56 554.513L1444.04 24.9666ZM1688.38 248.752C1721.39 248.752 1749.22 218.6 1749.22 184.679C1749.22 151.229 1721.39 123.903 1688.38 123.903H1569.98V248.752H1688.38Z" fill="#0C0F1F"/>
<path fill-rule="evenodd" clip-rule="evenodd" d="M2227.06 1.85449C2386.96 1.85449 2515.26 130.472 2515.26 290.655C2515.26 450.839 2387.43 577.571 2227.06 577.571C2067.15 577.571 1939.79 450.367 1939.79 290.655C1939.79 130.943 2067.15 1.85449 2227.06 1.85449ZM2227.06 449.425C2315.26 449.425 2386.96 377.343 2386.96 290.184C2386.96 202.083 2314.79 129.53 2227.06 129.53C2139.79 129.53 2067.62 202.083 2067.62 290.184C2067.62 377.343 2139.79 449.425 2227.06 449.425Z" fill="#0C0F1F"/>
<path fill-rule="evenodd" clip-rule="evenodd" d="M2860.07 1.85449C2940.25 1.85449 2999.22 26.8242 3053.93 76.2925C3061.01 82.8883 3061.01 92.3107 3054.88 98.4354L2992.61 162.98C2986.95 168.633 2977.99 168.633 2972.8 162.98C2943.09 136.597 2903.94 121.992 2864.78 121.992C2774.22 121.992 2707.71 197.372 2707.71 286.887C2707.71 375.458 2775.16 449.425 2865.26 449.425C2902.99 449.425 2943.56 435.763 2972.33 411.264C2977.99 406.553 2988.37 406.553 2993.08 412.206L3055.35 478.635C3061.01 484.289 3060.07 494.654 3054.4 500.307C3000.16 553.071 2931.29 578.045 2860.07 578.045C2700.16 578.045 2570.92 450.839 2570.92 291.127C2570.92 131.415 2700.16 1.85449 2860.07 1.85449Z" fill="#0C0F1F"/>
<path fill-rule="evenodd" clip-rule="evenodd" d="M3150.64 29.2068C3150.64 18.842 3158.65 9.89062 3169.97 9.89062H3263.84C3274.22 9.89062 3283.18 18.842 3283.18 29.2068V239.33L3461.01 17.8998C3464.31 14.1307 3471.39 9.89062 3476.1 9.89062H3577.05C3592.14 9.89062 3600.16 27.3223 3591.67 39.5716L3404.41 273.722L3608.65 538.966C3617.61 550.743 3608.65 568.649 3593.56 568.649H3483.18C3477.52 568.649 3470.44 565.352 3468.56 562.996L3282.71 311.883V550.273C3282.71 560.64 3273.75 569.59 3263.37 569.59H3169.5C3158.18 569.59 3150.16 560.64 3150.16 550.273L3150.64 29.2068Z" fill="#0C0F1F"/>
<path fill-rule="evenodd" clip-rule="evenodd" d="M3689.28 24.9666C3689.28 16.9575 3695.89 9.89062 3704.38 9.89062H4035.98C4044.95 9.89062 4051.07 16.9575 4051.07 24.9666V112.125C4051.07 120.135 4044.47 127.201 4035.98 127.201H3814.28V226.138H3996.83C4004.85 226.138 4011.92 233.205 4011.92 241.214V328.372C4011.92 337.324 4004.85 343.449 3996.83 343.449H3814.28V451.808H4035.98C4044.95 451.808 4051.07 458.875 4051.07 466.884V554.04C4051.07 562.049 4044.47 569.117 4035.98 569.117H3704.38C3695.42 569.117 3689.28 562.049 3689.28 554.04V24.9666Z" fill="#0C0F1F"/>
<path fill-rule="evenodd" clip-rule="evenodd" d="M4230.33 127.201H4115.71C4106.75 127.201 4100.62 120.135 4100.62 112.125V24.9666C4100.62 16.9575 4107.22 9.89062 4115.71 9.89062H4470.9C4479.86 9.89062 4485.99 16.9575 4485.99 24.9666V112.125C4485.99 120.135 4479.39 127.201 4470.9 127.201H4356.28V554.04C4356.28 562.049 4349.2 569.117 4341.18 569.117H4244.96C4236.94 569.117 4229.86 562.049 4229.86 554.04L4230.33 127.201Z" fill="#0C0F1F"/>
<path fill-rule="evenodd" clip-rule="evenodd" d="M693.39 980.451C727.608 980.451 751.592 962.314 751.592 931.858V931.391C751.592 904.419 733.896 892.095 699.419 883.723C667.996 876.281 660.545 870.7 660.545 858.144V857.676C660.545 846.981 670.322 838.378 687.08 838.378C699.882 838.378 711.996 842.561 724.566 850.702C726.892 852.1 729.217 852.794 732.011 852.794C739.462 852.794 745.519 846.981 745.519 839.545C745.519 833.964 742.488 830.006 739.231 828.151C724.566 818.386 708.033 813.036 687.543 813.036C655.188 813.036 631.905 832.334 631.905 860.247V860.709C631.905 890.708 651.463 900.935 686.149 909.307C716.415 916.287 722.929 922.562 722.929 934.187V934.655C722.929 946.742 711.759 955.114 694.063 955.114C676.373 955.114 661.939 949.071 648.437 938.37C646.575 936.978 644.012 935.816 640.055 935.816C632.604 935.816 626.548 941.629 626.548 949.065C626.548 953.716 628.879 957.668 632.141 959.997C650.3 973.488 671.253 980.456 693.363 980.456L693.39 980.451ZM891.246 868.151C891.246 860.247 884.726 853.972 877.049 853.972C869.135 853.972 862.847 860.252 862.847 868.151V924.653C862.847 943.72 851.445 954.883 835.149 954.883C818.385 954.883 808.84 944.188 808.84 925.121V868.162C808.84 860.252 802.552 853.977 794.644 853.977C786.961 853.977 780.679 860.258 780.679 868.162V933.499C780.679 962.105 796.738 980.71 824.447 980.71C843.537 980.71 854.939 970.708 862.853 959.083V965.363C862.853 973.268 869.372 979.311 877.055 979.311C884.969 979.311 891.251 973.031 891.251 965.363V868.168L891.246 868.151ZM926.406 1002.57V868.168C926.406 860.263 932.457 853.989 940.37 853.989C948.29 853.989 954.572 860.269 954.572 868.168V875.846C963.649 863.06 976.451 852.827 996.478 852.827C1025.34 852.827 1053.51 875.615 1053.51 916.534V917.002C1053.51 957.69 1025.56 980.71 996.478 980.71C975.993 980.71 963.175 970.477 954.572 959.089V1002.57C954.572 1010.47 948.284 1016.52 940.37 1016.52C932.688 1016.52 926.406 1010.47 926.406 1002.57ZM989.727 956.292C1009.05 956.292 1024.88 941.177 1024.88 916.997V916.529C1024.88 892.833 1008.82 877.233 989.727 877.233C970.637 877.233 953.872 893.047 953.872 916.529V916.997C953.872 940.484 970.637 956.292 989.727 956.292ZM1103.78 908.162H1166.87C1165.01 890.025 1154.3 875.846 1135.68 875.846C1118.45 875.846 1106.34 889.095 1103.78 908.162ZM1183.17 964.664C1172 974.66 1158.03 980.941 1138.94 980.941C1103.32 980.941 1075.85 955.136 1075.85 917.233V916.766C1075.85 881.653 1100.76 852.827 1135.91 852.827C1175.02 852.827 1194.34 884.912 1194.34 913.281C1194.34 921.186 1188.29 926.767 1181.07 926.767H1104.02C1107.04 946.764 1121.25 957.922 1139.4 957.922C1151.28 957.922 1160.59 953.738 1168.5 947.227C1170.6 945.603 1172.46 944.673 1175.72 944.673C1182.01 944.673 1186.89 949.549 1186.89 956.061C1186.89 959.551 1185.27 962.573 1183.17 964.664ZM1223.21 965.364C1223.21 973.268 1229.5 979.312 1237.17 979.312C1245.09 979.312 1251.38 973.031 1251.38 965.364V929.09C1251.38 900.027 1265.11 884.675 1285.13 881.191C1291.42 880.03 1296.3 875.147 1296.3 867.705C1296.3 859.564 1291.18 853.752 1282.34 853.752C1270 853.752 1257.9 865.383 1251.38 880.723V868.168C1251.38 860.263 1245.09 853.989 1237.17 853.989C1229.26 853.989 1223.21 860.269 1223.21 868.168V965.364ZM1318.89 823.742C1318.89 832.114 1325.88 837.69 1334.96 837.69C1344.03 837.69 1351.02 832.109 1351.02 823.742V822.349C1351.02 813.977 1344.03 808.627 1334.96 808.627C1325.87 808.627 1318.89 813.977 1318.89 822.349V823.742ZM1320.99 965.364C1320.99 973.268 1327.27 979.312 1334.96 979.312C1342.87 979.312 1349.15 973.268 1349.15 965.364V868.168C1349.15 860.263 1342.86 853.989 1334.96 853.989C1327.04 853.989 1320.99 860.269 1320.99 868.168V965.364ZM1444.38 980.941C1406.9 980.941 1379.2 952.34 1379.2 917.465V916.997C1379.2 881.885 1407.14 852.822 1444.85 852.822C1482.56 852.822 1510.27 881.422 1510.27 916.529V916.997C1510.27 951.872 1482.33 980.941 1444.39 980.941H1444.38ZM1444.86 956.287C1467.67 956.287 1482.1 938.618 1482.1 917.459V916.991C1482.1 895.37 1466.5 877.465 1444.39 877.465C1421.81 877.465 1407.38 895.139 1407.38 916.529V916.997C1407.38 938.392 1422.98 956.292 1444.86 956.292L1444.86 956.287ZM1538.91 965.364C1538.91 973.268 1545.2 979.312 1552.88 979.312C1560.79 979.312 1567.08 973.031 1567.08 965.364V929.09C1567.08 900.027 1580.81 884.675 1600.83 881.191C1607.12 880.03 1612 875.147 1612 867.705C1612 859.564 1606.88 853.752 1598.04 853.752C1585.7 853.752 1573.59 865.383 1567.08 880.723V868.168C1567.08 860.263 1560.79 853.989 1552.88 853.989C1544.96 853.989 1538.91 860.269 1538.91 868.168V965.364ZM1746.34 968.617C1749.13 976.058 1754.25 980.478 1761.24 980.478H1764.03C1771.02 980.478 1776.37 976.058 1778.93 968.617L1815.25 862.355L1851.57 968.617C1854.12 976.058 1859.25 980.478 1866.23 980.478H1869.02C1876.01 980.478 1881.36 975.827 1883.92 968.617L1932.11 833.754C1932.81 832.131 1933.51 829.802 1933.51 827.942C1933.51 820.263 1926.99 814.22 1919.31 814.22C1912.32 814.22 1907.44 818.64 1905.34 824.452L1867.86 936.532L1831.08 825.151C1828.98 818.408 1823.86 813.757 1816.64 813.757H1814.55C1807.33 813.757 1802.45 818.408 1800.12 825.151L1763.34 936.532L1725.86 824.689C1723.99 818.645 1718.64 814.225 1711.65 814.225C1703.74 814.225 1696.99 820.269 1696.99 828.173C1696.99 830.039 1697.46 832.131 1698.16 833.76L1746.34 968.622L1746.34 968.617ZM2007.33 980.946C1969.85 980.946 1942.15 952.346 1942.15 917.47V917.002C1942.15 881.89 1970.08 852.827 2007.8 852.827C2045.51 852.827 2073.22 881.428 2073.22 916.534V917.002C2073.22 951.878 2045.28 980.941 2007.33 980.941V980.946ZM2007.8 956.292C2030.62 956.292 2045.05 938.623 2045.05 917.465V916.997C2045.05 895.37 2029.46 877.47 2007.34 877.47C1984.76 877.47 1970.33 895.139 1970.33 916.534V917.002C1970.33 938.398 1985.92 956.298 2007.81 956.298L2007.8 956.292ZM2101.86 965.369C2101.86 973.273 2108.15 979.317 2115.83 979.317C2123.74 979.317 2130.02 973.037 2130.02 965.369V929.095C2130.02 900.032 2143.76 884.681 2163.78 881.197C2170.07 880.035 2174.96 875.153 2174.96 867.705C2174.96 859.57 2169.83 853.757 2160.99 853.757C2148.65 853.757 2136.54 865.383 2130.02 880.729V868.173C2130.02 860.269 2123.74 853.994 2115.83 853.994C2107.91 853.994 2101.86 860.274 2101.86 868.173V965.369ZM2315.35 821.205V965.369C2315.35 973.273 2309.06 979.317 2301.38 979.317C2293.46 979.317 2287.18 973.273 2287.18 965.369V957.69C2278.1 970.477 2265.3 980.71 2245.28 980.71C2216.41 980.71 2188.25 957.69 2188.25 917.002V916.534C2188.25 875.846 2215.95 852.827 2245.28 852.827C2265.53 852.827 2278.34 862.823 2287.18 874.448V821.205C2287.18 813.295 2293.47 807.251 2301.15 807.251C2309.07 807.251 2315.35 813.295 2315.35 821.205ZM2252.03 877.239C2232.71 877.239 2216.64 892.123 2216.64 916.534V917.002C2216.64 940.698 2232.94 956.298 2252.03 956.298C2270.89 956.298 2287.64 940.489 2287.64 917.002V916.534C2287.64 892.838 2270.88 877.239 2252.03 877.239ZM2354 965.132V829.808C2354 821.667 2360.28 815.387 2368.43 815.387H2418.25C2456.43 815.387 2480.18 837.013 2480.18 869.797V870.265C2480.18 906.775 2450.85 925.842 2415 925.842H2382.64V965.138C2382.64 973.042 2376.35 979.317 2368.44 979.317C2360.3 979.317 2354.01 973.037 2354.01 965.138L2354 965.132ZM2382.64 900.032H2415.95C2437.6 900.032 2451.1 887.945 2451.1 870.969V870.502C2451.1 851.434 2437.37 841.439 2415.95 841.439H2382.64V900.032ZM2506.28 965.374C2506.28 973.279 2512.56 979.323 2520.24 979.323C2528.16 979.323 2534.44 973.042 2534.44 965.374V929.101C2534.44 900.038 2548.18 884.686 2568.2 881.202C2574.48 880.035 2579.37 875.158 2579.37 867.711C2579.37 859.575 2574.25 853.763 2565.4 853.763C2553.06 853.763 2540.96 865.388 2534.44 880.734V868.179C2534.44 860.274 2528.15 854 2520.24 854C2512.33 854 2506.28 860.28 2506.28 868.179V965.374ZM2619.42 908.173H2682.51C2680.64 890.036 2669.93 875.852 2651.31 875.852C2634.09 875.852 2621.98 889.106 2619.42 908.173ZM2698.8 964.675C2687.63 974.671 2673.66 980.952 2654.57 980.952C2618.95 980.952 2591.48 955.142 2591.48 917.244V916.777C2591.48 881.664 2616.39 852.833 2651.54 852.833C2690.66 852.833 2709.98 884.923 2709.98 913.287C2709.98 921.197 2703.93 926.778 2696.71 926.778H2619.65C2622.68 946.77 2636.88 957.933 2655.04 957.933C2666.91 957.933 2676.22 953.749 2684.14 947.238C2686.23 945.614 2688.09 944.678 2691.36 944.678C2697.64 944.678 2702.53 949.56 2702.53 956.072C2702.53 959.556 2700.9 962.584 2698.8 964.675ZM2780.98 980.484C2806.59 980.484 2826.61 967.697 2826.61 941.887V941.42C2826.61 919.331 2806.35 911.195 2788.43 905.608C2773.99 900.963 2760.73 897.236 2760.73 888.171V887.703C2760.73 880.723 2767.02 875.615 2777.96 875.615C2786.56 875.615 2796.81 878.868 2806.82 883.987C2808.68 884.912 2810.08 885.38 2812.41 885.38C2818.93 885.38 2824.05 880.497 2824.05 873.986C2824.05 869.109 2821.26 865.383 2817.3 863.291C2805.43 857.016 2791.69 853.295 2778.66 853.295C2754.21 853.295 2734.89 867.474 2734.89 890.73V891.198C2734.89 914.685 2755.14 922.121 2773.3 927.24C2787.73 931.66 2800.77 934.913 2800.77 944.447V944.909C2800.77 953.05 2793.78 958.164 2781.68 958.164C2770.5 958.164 2758.17 954.212 2746.3 946.307C2744.66 945.377 2742.56 944.678 2740.24 944.678C2733.72 944.678 2728.84 949.797 2728.84 956.072C2728.84 960.723 2731.17 964.208 2734.19 965.837C2748.39 975.607 2765.39 980.484 2780.98 980.484ZM2895.27 980.484C2920.88 980.484 2940.9 967.697 2940.9 941.887V941.42C2940.9 919.331 2920.65 911.195 2902.72 905.608C2888.29 900.963 2875.02 897.236 2875.02 888.171V887.703C2875.02 880.723 2881.31 875.615 2892.24 875.615C2900.86 875.615 2911.1 878.868 2921.11 883.987C2922.98 884.912 2924.37 885.38 2926.7 885.38C2933.22 885.38 2938.34 880.497 2938.34 873.986C2938.34 869.109 2935.55 865.383 2931.6 863.291C2919.72 857.016 2905.99 853.295 2892.95 853.295C2868.51 853.295 2849.18 867.474 2849.18 890.73V891.198C2849.18 914.685 2869.43 922.121 2887.59 927.24C2902.02 931.66 2915.06 934.913 2915.06 944.447V944.909C2915.06 953.05 2908.08 958.164 2895.97 958.164C2884.8 958.164 2872.46 954.212 2860.59 946.307C2858.96 945.377 2856.86 944.678 2854.53 944.678C2848.01 944.678 2843.13 949.797 2843.13 956.072C2843.13 960.723 2845.46 964.208 2848.48 965.837C2862.68 975.607 2879.67 980.484 2895.27 980.484ZM3042.87 965.143V829.813C3042.87 821.678 3049.16 815.398 3057.3 815.398H3107.12C3145.3 815.398 3169.05 837.024 3169.05 869.808V870.276C3169.05 906.781 3139.72 925.848 3103.87 925.848H3071.51V965.149C3071.51 973.053 3065.23 979.328 3057.31 979.328C3049.17 979.328 3042.88 973.048 3042.88 965.149L3042.87 965.143ZM3071.51 900.043H3104.82C3126.47 900.043 3139.97 887.95 3139.97 870.975V870.513C3139.97 851.445 3126.24 841.45 3104.82 841.45H3071.51V900.043ZM3215.16 908.179H3278.25C3276.38 890.036 3265.68 875.857 3247.06 875.857C3229.83 875.857 3217.72 889.112 3215.16 908.179ZM3294.54 964.681C3283.37 974.677 3269.4 980.957 3250.31 980.957C3214.69 980.957 3187.22 955.147 3187.22 917.244V916.782C3187.22 881.67 3212.13 852.838 3247.29 852.838C3286.4 852.838 3305.72 884.928 3305.72 913.292C3305.72 921.202 3299.67 926.783 3292.45 926.783H3215.39C3218.42 946.775 3232.62 957.938 3250.78 957.938C3262.65 957.938 3271.96 953.755 3279.88 947.243C3281.97 945.619 3283.84 944.684 3287.1 944.684C3293.38 944.684 3298.27 949.566 3298.27 956.078C3298.27 959.562 3296.64 962.589 3294.54 964.681ZM3334.59 965.374C3334.59 973.284 3340.87 979.328 3348.55 979.328C3356.47 979.328 3362.75 973.048 3362.75 965.374V929.106C3362.75 900.043 3376.49 884.692 3396.5 881.207C3402.79 880.041 3407.68 875.164 3407.68 867.716C3407.68 859.581 3402.56 853.768 3393.71 853.768C3381.37 853.768 3369.27 865.393 3362.75 880.74V868.184C3362.75 860.28 3356.46 854.005 3348.55 854.005C3340.64 854.005 3334.59 860.285 3334.59 868.184V965.374ZM3437.02 965.374C3437.02 973.053 3443.31 979.328 3450.98 979.328C3458.9 979.328 3465.19 973.048 3465.19 965.374V879.573H3486.6C3493.12 879.573 3498.48 874.459 3498.48 867.948C3498.48 861.436 3493.35 856.322 3486.6 856.322H3464.72V849.58C3464.72 836.793 3470.31 830.98 3481.02 830.98C3482.88 830.98 3485.21 831.211 3486.84 831.443C3493.36 831.674 3498.71 826.329 3498.71 819.817C3498.71 813.537 3494.06 808.886 3488.93 808.192C3484.98 807.493 3480.32 807.025 3474.74 807.025C3462.63 807.025 3453.55 810.284 3447.03 816.796C3440.51 823.302 3437.02 833.534 3437.02 847.02V856.091H3432.14C3425.62 856.091 3420.27 861.436 3420.27 867.948C3420.27 874.459 3425.62 879.573 3432.14 879.573H3437.02V965.374H3437.02ZM3574.38 980.957C3536.9 980.957 3509.2 952.357 3509.2 917.476V917.013C3509.2 881.896 3537.14 852.833 3574.85 852.833C3612.56 852.833 3640.27 881.439 3640.27 916.545V917.013C3640.27 951.889 3612.33 980.952 3574.39 980.952L3574.38 980.957ZM3574.85 956.303C3597.67 956.303 3612.1 938.629 3612.1 917.476V917.008C3612.1 895.381 3596.5 877.481 3574.39 877.481C3551.81 877.481 3537.38 895.15 3537.38 916.545V917.013C3537.38 938.403 3552.98 956.309 3574.86 956.309L3574.85 956.303ZM3668.91 965.374C3668.91 973.284 3675.2 979.328 3682.87 979.328C3690.79 979.328 3697.07 973.048 3697.07 965.374V929.106C3697.07 900.043 3710.81 884.692 3730.83 881.207C3737.11 880.041 3742 875.164 3742 867.716C3742 859.581 3736.88 853.768 3728.04 853.768C3715.7 853.768 3703.59 865.393 3697.07 880.74V868.184C3697.07 860.28 3690.78 854.005 3682.87 854.005C3674.96 854.005 3668.91 860.285 3668.91 868.184V965.374ZM3765.05 965.374C3765.05 973.284 3771.34 979.328 3779.02 979.328C3786.94 979.328 3793.22 973.284 3793.22 965.374V908.872C3793.22 890.036 3803.93 878.417 3819.52 878.417C3835.13 878.417 3844.43 889.112 3844.43 908.179V965.374C3844.43 973.284 3850.72 979.328 3858.64 979.328C3866.32 979.328 3872.6 973.284 3872.6 965.374V908.872C3872.6 889.112 3883.55 878.417 3898.9 878.417C3914.74 878.417 3923.81 888.881 3923.81 908.415V965.374C3923.81 973.279 3930.1 979.323 3938.02 979.323C3945.93 979.323 3951.98 973.279 3951.98 965.374V899.801C3951.98 869.802 3935.68 852.827 3908.91 852.827C3890.29 852.827 3877.25 861.43 3867.47 874.454C3860.96 861.43 3848.39 852.827 3830.69 852.827C3811.83 852.827 3801.12 863.06 3793.21 873.986V868.173C3793.21 860.269 3786.92 853.994 3779.01 853.994C3771.09 853.994 3765.04 860.274 3765.04 868.173V965.369L3765.05 965.374ZM4021.6 980.71C3998.55 980.71 3978.06 967.461 3978.06 942.834V942.366C3978.06 915.863 3998.79 902.84 4028.81 902.84C4042.55 902.84 4052.33 904.931 4061.88 907.959V904.931C4061.88 887.488 4051.17 878.191 4031.39 878.191C4020.68 878.191 4011.83 880.052 4004.15 883.073C4002.52 883.536 4001.12 883.767 3999.73 883.767C3993.21 883.767 3987.85 878.653 3987.85 872.142C3987.85 867.023 3991.35 862.603 3995.54 860.979C4007.18 856.559 4019.05 853.774 4035.11 853.774C4053.5 853.774 4067.24 858.651 4075.85 867.491C4084.93 876.325 4089.12 889.348 4089.12 905.372V965.826C4089.12 973.499 4083.07 979.311 4075.39 979.311C4067.24 979.311 4061.65 973.73 4061.65 967.455V962.804C4053.27 972.8 4040.47 980.71 4021.61 980.71H4021.6ZM4029.53 960.244C4048.15 960.244 4062.35 949.549 4062.35 933.972V925.6C4055.13 922.809 4045.58 920.718 4034.41 920.718C4016.25 920.718 4005.54 928.396 4005.54 941.177V941.645C4005.54 953.507 4016.02 960.244 4029.52 960.244H4029.53ZM4122.87 965.363C4122.87 973.268 4129.16 979.312 4136.84 979.312C4144.75 979.312 4151.04 973.268 4151.04 965.363V908.861C4151.04 889.794 4162.44 878.4 4178.74 878.4C4195.5 878.4 4205.04 889.332 4205.04 908.399V965.358C4205.04 973.262 4211.33 979.306 4219.24 979.306C4227.16 979.306 4233.21 973.262 4233.21 965.358V899.785C4233.21 871.426 4217.15 852.816 4189.44 852.816C4170.35 852.816 4158.95 862.812 4151.03 874.212V868.162C4151.03 860.258 4144.74 853.983 4136.84 853.983C4128.92 853.983 4122.86 860.263 4122.86 868.162V965.358L4122.87 965.363ZM4324 980.941C4344.49 980.941 4357.76 973.961 4368.7 963.498C4371.27 961.406 4372.66 958.378 4372.66 954.663C4372.66 947.92 4367.31 942.339 4360.56 942.339C4357.3 942.339 4354.51 943.963 4352.88 945.366C4345.19 951.872 4336.57 956.292 4325.4 956.292C4303.75 956.292 4288.62 938.855 4288.62 916.997V916.529C4288.62 895.139 4303.75 877.465 4324.24 877.465C4335.41 877.465 4343.33 881.885 4350.55 887.928C4352.41 889.321 4355.43 890.719 4358.93 890.719C4366.14 890.719 4371.97 885.132 4371.97 877.932C4371.97 873.281 4369.4 869.797 4367.54 868.162C4357.06 859.097 4343.81 852.822 4324.47 852.822C4287.46 852.822 4260.45 882.121 4260.45 916.997V917.465C4260.45 952.34 4287.46 980.941 4324 980.941V980.941ZM4417.83 908.162H4480.92C4479.05 890.025 4468.34 875.846 4449.72 875.846C4432.5 875.846 4420.39 889.095 4417.83 908.162ZM4497.21 964.664C4486.04 974.66 4472.07 980.941 4452.98 980.941C4417.37 980.941 4389.89 955.136 4389.89 917.233V916.766C4389.89 881.653 4414.8 852.827 4449.95 852.827C4489.07 852.827 4508.39 884.912 4508.39 913.281C4508.39 921.186 4502.33 926.767 4495.12 926.767H4418.06C4421.09 946.764 4435.29 957.922 4453.45 957.922C4465.32 957.922 4474.63 953.738 4482.55 947.227C4484.64 945.603 4486.51 944.673 4489.76 944.673C4496.05 944.673 4500.94 949.549 4500.94 956.061C4500.94 959.551 4499.31 962.573 4497.21 964.664Z" fill="#0C0F1F"/>
<defs>
<linearGradient id="paint0_linear_2765_37485" x1="365.852" y1="1221.5" x2="384.822" y2="558.311" gradientUnits="userSpaceOnUse">
<stop stop-color="#E25D35"/>
<stop offset="0.260417" stop-color="#F56F46"/>
<stop offset="1" stop-color="#FFD147"/>
</linearGradient>
<linearGradient id="paint1_linear_2765_37485" x1="367.11" y1="991.582" x2="373.183" y2="539.12" gradientUnits="userSpaceOnUse">
<stop stop-color="#E25D35"/>
<stop offset="0.260417" stop-color="#F56F46"/>
<stop offset="1" stop-color="#FFD147"/>
</linearGradient>
<linearGradient id="paint2_linear_2765_37485" x1="368.15" y1="857.989" x2="385.188" y2="358.815" gradientUnits="userSpaceOnUse">
<stop stop-color="#E25D35"/>
<stop offset="0.260417" stop-color="#F56F46"/>
<stop offset="1" stop-color="#FFD147"/>
</linearGradient>
</defs>
</svg>
