<?xml version="1.0" encoding="UTF-8"?>
<svg width="232px" height="63px" viewBox="0 0 232 63" version="1.1" xmlns="http://www.w3.org/2000/svg" xmlns:xlink="http://www.w3.org/1999/xlink">
    <!-- Generator: Sketch 48.2 (47327) - http://www.bohemiancoding.com/sketch -->
    <title>Icon / WP Rocket / Light</title>
    <desc>Created with Sketch.</desc>
    <defs>
        <linearGradient x1="50.1383841%" y1="100%" x2="50.1383841%" y2="32.5347067%" id="linearGradient-1">
            <stop stop-color="#F56640" offset="0%"></stop>
            <stop stop-color="#F57840" offset="24.3858064%"></stop>
            <stop stop-color="#FFBE54" offset="100%"></stop>
        </linearGradient>
        <linearGradient x1="50.0029445%" y1="98.3205782%" x2="50.0029445%" y2="18.9773025%" id="linearGradient-2">
            <stop stop-color="#F56640" offset="0%"></stop>
            <stop stop-color="#F57840" offset="18.1093204%"></stop>
            <stop stop-color="#FFBE54" offset="100%"></stop>
        </linearGradient>
        <linearGradient x1="50.000006%" y1="110.433207%" x2="50%" y2="-25.4443577%" id="linearGradient-3">
            <stop stop-color="#F56640" offset="0%"></stop>
            <stop stop-color="#F57840" offset="8.37881088%"></stop>
            <stop stop-color="#FFBE54" offset="100%"></stop>
        </linearGradient>
        <linearGradient x1="50.000006%" y1="84.3779533%" x2="50.000006%" y2="0%" id="linearGradient-4">
            <stop stop-color="#F56640" offset="0%"></stop>
            <stop stop-color="#F57840" offset="39.1082657%"></stop>
            <stop stop-color="#FFBE54" offset="100%"></stop>
        </linearGradient>
    </defs>
    <g id="Imagify-Plugin-—-Settings" stroke="none" stroke-width="1" fill="none" fill-rule="evenodd" transform="translate(-1382.000000, -110.000000)">
        <g id="Group-14" transform="translate(1382.000000, 68.000000)">
            <g id="Icon-/-WP-Rocket-/-Light" transform="translate(0.000000, 42.000000)">
                <path d="M26.2526316,32.5011628 C25.0804211,32.5011628 23.9814737,31.8174419 23.4442105,30.7430233 L22.5162105,28.6674419 L13.3094737,28.6674419 L12.3814737,30.7430233 C11.8442105,31.8174419 10.7452632,32.5011628 9.57305263,32.5011628 L9.08463158,32.5011628 L13.0164211,62.4627907 C13.2117895,63.0244186 13.5781053,63.0244186 13.7978947,62.4627907 L17.7052632,52.8906977 L21.0997895,62.4383721 C21.2951579,63 21.6614737,63 21.8812632,62.4383721 L26.4235789,32.5255814 L26.2526316,32.5011628 L26.2526316,32.5011628 Z" id="Shape" fill="url(#linearGradient-1)"></path>
                <path d="M22.1498947,27.8372093 L13.7002105,27.8372093 L12.4058947,30.7430233 C11.9663158,31.622093 11.1115789,32.2569767 10.1835789,32.427907 L13.1629474,50.9127907 C13.3583158,51.2546512 13.7246316,51.2546512 13.9444211,50.9127907 L17.7541053,45.1255814 L21.2463158,50.8883721 C21.4661053,51.2302326 21.808,51.2302326 22.0277895,50.8883721 L25.3978947,32.3790698 C24.5675789,32.1348837 23.8349474,31.5488372 23.4442105,30.7430233 L22.1498947,27.8372093 Z" id="Shape" fill="url(#linearGradient-2)"></path>
                <path d="M23.4442105,30.7430233 L17.9006316,18.3627907 L12.3814737,30.7430233 C12.1861053,31.1093023 11.9418947,31.4267442 11.6488421,31.6953488 L13.9444211,43.977907 C14.0665263,44.1488372 14.384,44.1976744 14.6037895,43.977907 L17.6808421,39.9 L20.7578947,43.9534884 C20.9532632,44.1976744 21.2951579,44.1488372 21.4172632,43.9534884 L23.9570526,31.5244186 C23.7616842,31.2802326 23.5907368,31.0360465 23.4442105,30.7430233" id="Shape" fill="url(#linearGradient-3)"></path>
                <path d="M23.4442105,30.7430233 L17.9006316,18.3627907 L12.3814737,30.7430233 C12.1861053,31.1093023 11.9418947,31.4267442 11.6488421,31.6953488 L13.9444211,43.977907 C14.0665263,44.1488372 14.384,44.1976744 14.6037895,43.977907 L17.6808421,39.9 L20.7578947,43.9534884 C20.9532632,44.1976744 21.2951579,44.1488372 21.4172632,43.9534884 L23.9570526,31.5244186 C23.7616842,31.2802326 23.5907368,31.0360465 23.4442105,30.7430233" id="Shape" fill="url(#linearGradient-4)" opacity="0.5"></path>
                <path d="M0.219789474,1.51395349 C0.0488421053,0.927906977 0.390736842,0.512790698 0.976842105,0.512790698 L5.83663158,0.512790698 C6.17852632,0.512790698 6.496,0.805813953 6.59368421,1.09883721 L10.1591579,15.1395349 L10.3301053,15.1395349 L16.7528421,0.561627907 C16.8749474,0.31744186 17.1191579,0.0976744186 17.4610526,0.0976744186 L18.2181053,0.0976744186 C18.5844211,0.0976744186 18.8286316,0.293023256 18.9263158,0.561627907 L25.3490526,15.1395349 L25.52,15.1395349 L29.0854737,1.09883721 C29.1587368,0.805813953 29.5006316,0.512790698 29.8425263,0.512790698 L34.7023158,0.512790698 C35.2884211,0.512790698 35.6058947,0.927906977 35.4593684,1.51395349 L27.6202105,29.3511628 C27.5469474,29.6930233 27.2050526,29.9372093 26.8631579,29.9372093 L26.2037895,29.9372093 C25.9107368,29.9372093 25.6176842,29.7418605 25.4955789,29.4732558 L17.9006316,12.5267442 L17.7785263,12.5267442 L10.2324211,29.4732558 C10.1103158,29.7174419 9.81726316,29.9372093 9.52421053,29.9372093 L8.86484211,29.9372093 C8.52294737,29.9372093 8.20547368,29.6930233 8.10778947,29.3511628 L0.219789474,1.51395349" id="Shape" fill="#FFFFFF"></path>
                <path d="M39.7818947,1.29418605 C39.7818947,0.879069767 40.1237895,0.512790698 40.5633684,0.512790698 L50.5515789,0.512790698 C55.6555789,0.512790698 59.8315789,4.66395349 59.8315789,9.66976744 C59.8315789,14.7976744 55.6555789,18.9976744 50.6004211,18.9976744 L46.2534737,18.9976744 L46.2534737,28.7406977 C46.2534737,29.155814 45.8871579,29.522093 45.472,29.522093 L40.5877895,29.522093 C40.1237895,29.522093 39.8063158,29.155814 39.8063158,28.7406977 L39.8063158,1.29418605 L39.7818947,1.29418605 L39.7818947,1.29418605 Z M50.1852632,12.9418605 C51.968,12.9418605 53.4576842,11.5255814 53.4576842,9.66976744 C53.4576842,7.93604651 51.968,6.59302326 50.1852632,6.59302326 L46.2534737,6.59302326 L46.2534737,12.9418605 L50.1852632,12.9418605 L50.1852632,12.9418605 Z" id="Shape" fill="#FFFFFF"></path>
                <path d="M73.3364211,1.29418605 C73.3364211,0.879069767 73.6783158,0.512790698 74.1178947,0.512790698 L86.4993684,0.512790698 C91.4812632,0.512790698 95.5351579,4.54186047 95.5351579,9.4744186 C95.5351579,13.2837209 93.0197895,16.3604651 89.4054737,17.8011628 L95.0711579,28.3255814 C95.3642105,28.8627907 95.0711579,29.522093 94.3629474,29.522093 L88.8437895,29.522093 C88.5018947,29.522093 88.2576842,29.3267442 88.1844211,29.155814 L82.6652632,18.1674419 L79.808,18.1674419 L79.808,28.7406977 C79.808,29.155814 79.4416842,29.522093 79.0265263,29.522093 L74.0934737,29.522093 C73.6294737,29.522093 73.312,29.155814 73.312,28.7406977 L73.3364211,1.29418605 L73.3364211,1.29418605 Z M85.9865263,12.8930233 C87.696,12.8930233 89.1368421,11.3302326 89.1368421,9.57209302 C89.1368421,7.83837209 87.696,6.42209302 85.9865263,6.42209302 L79.8568421,6.42209302 L79.8568421,12.8930233 L85.9865263,12.8930233 L85.9865263,12.8930233 Z" id="Shape" fill="#FFFFFF"></path>
                <path d="M113.875368,0.0976744186 C122.154105,0.0976744186 128.796632,6.76395349 128.796632,15.0662791 C128.796632,23.3686047 122.178526,29.9372093 113.875368,29.9372093 C105.596632,29.9372093 99.0029474,23.344186 99.0029474,15.0662791 C99.0029474,6.78837209 105.596632,0.0976744186 113.875368,0.0976744186 M113.875368,23.2953488 C118.442105,23.2953488 122.154105,19.5593023 122.154105,15.0418605 C122.154105,10.4755814 118.417684,6.71511628 113.875368,6.71511628 C109.357474,6.71511628 105.621053,10.4755814 105.621053,15.0418605 C105.621053,19.5593023 109.357474,23.2953488 113.875368,23.2953488" id="Shape" fill="#FFFFFF"></path>
                <path d="M146.648421,0.0976744186 C150.8,0.0976744186 153.852632,1.39186047 156.685474,3.95581395 C157.051789,4.29767442 157.051789,4.78604651 156.734316,5.10348837 L153.510737,8.44883721 C153.217684,8.74186047 152.753684,8.74186047 152.485053,8.44883721 C150.946526,7.08139535 148.919579,6.3244186 146.892632,6.3244186 C142.203789,6.3244186 138.760421,10.2313953 138.760421,14.8709302 C138.760421,19.4616279 142.252632,23.2953488 146.917053,23.2953488 C148.870737,23.2953488 150.970947,22.5872093 152.460632,21.3174419 C152.753684,21.0732558 153.290947,21.0732558 153.535158,21.3662791 L156.758737,24.8093023 C157.051789,25.1023256 157.002947,25.6395349 156.709895,25.9325581 C153.901474,28.6674419 150.336,29.9616279 146.648421,29.9616279 C138.369684,29.9616279 131.678316,23.3686047 131.678316,15.0906977 C131.678316,6.8127907 138.369684,0.0976744186 146.648421,0.0976744186" id="Shape" fill="#FFFFFF"></path>
                <path d="M161.691789,1.51395349 C161.691789,0.976744186 162.106947,0.512790698 162.693053,0.512790698 L167.552842,0.512790698 C168.090105,0.512790698 168.554105,0.976744186 168.554105,1.51395349 L168.554105,12.4046512 L177.760842,0.927906977 C177.931789,0.73255814 178.298105,0.512790698 178.542316,0.512790698 L183.768421,0.512790698 C184.549895,0.512790698 184.965053,1.41627907 184.525474,2.05116279 L174.830316,14.1872093 L185.404632,27.9348837 C185.868632,28.5453488 185.404632,29.4732558 184.623158,29.4732558 L178.908632,29.4732558 C178.615579,29.4732558 178.249263,29.3023256 178.151579,29.1802326 L168.529684,16.1651163 L168.529684,28.5209302 C168.529684,29.0581395 168.065684,29.522093 167.528421,29.522093 L162.668632,29.522093 C162.082526,29.522093 161.667368,29.0581395 161.667368,28.5209302 L161.691789,1.51395349 L161.691789,1.51395349 Z" id="Shape" fill="#FFFFFF"></path>
                <path d="M189.580632,1.29418605 C189.580632,0.879069767 189.922526,0.512790698 190.362105,0.512790698 L207.530105,0.512790698 C207.994105,0.512790698 208.311579,0.879069767 208.311579,1.29418605 L208.311579,5.81162791 C208.311579,6.22674419 207.969684,6.59302326 207.530105,6.59302326 L196.052211,6.59302326 L196.052211,11.7209302 L205.503158,11.7209302 C205.918316,11.7209302 206.284632,12.0872093 206.284632,12.5023256 L206.284632,17.0197674 C206.284632,17.4837209 205.918316,17.8011628 205.503158,17.8011628 L196.052211,17.8011628 L196.052211,23.4174419 L207.530105,23.4174419 C207.994105,23.4174419 208.311579,23.7837209 208.311579,24.1988372 L208.311579,28.7162791 C208.311579,29.1313953 207.969684,29.4976744 207.530105,29.4976744 L190.362105,29.4976744 C189.898105,29.4976744 189.580632,29.1313953 189.580632,28.7162791 L189.580632,1.29418605" id="Shape" fill="#FFFFFF"></path>
                <path d="M217.591579,6.59302326 L211.657263,6.59302326 C211.193263,6.59302326 210.875789,6.22674419 210.875789,5.81162791 L210.875789,1.29418605 C210.875789,0.879069767 211.217684,0.512790698 211.657263,0.512790698 L230.046316,0.512790698 C230.510316,0.512790698 230.827789,0.879069767 230.827789,1.29418605 L230.827789,5.81162791 C230.827789,6.22674419 230.485895,6.59302326 230.046316,6.59302326 L224.112,6.59302326 L224.112,28.7162791 C224.112,29.1313953 223.745684,29.4976744 223.330526,29.4976744 L218.348632,29.4976744 C217.933474,29.4976744 217.567158,29.1313953 217.567158,28.7162791 L217.591579,6.59302326 L217.591579,6.59302326 Z" id="Shape" fill="#FFFFFF"></path>
                <path d="M34.4739035,50.8163567 C36.2456718,50.8163567 37.4871149,49.876329 37.4871149,48.2975645 L37.4871149,48.2734612 C37.4871149,46.8754713 36.5710986,46.2367345 34.7872775,45.8028756 C33.1601433,45.4172232 32.7744523,45.1279839 32.7744523,44.4771955 L32.7744523,44.4530922 C32.7744523,43.8987169 33.2806718,43.4528063 34.1484767,43.4528063 C34.8113832,43.4528063 35.4381311,43.6697358 36.0889848,44.0915431 C36.2095132,44.1638529 36.3300417,44.2000078 36.4746758,44.2000078 C36.8603669,44.2000078 37.1737409,43.8987169 37.1737409,43.5130645 C37.1737409,43.2238252 37.0170539,43.0189474 36.848314,42.9225343 C36.0889848,42.4163655 35.2332328,42.1391778 34.1725824,42.1391778 C32.4972368,42.1391778 31.2919523,43.1394637 31.2919523,44.5856602 L31.2919523,44.6097635 C31.2919523,46.1644247 32.3043913,46.6946967 34.1002653,47.1285557 C35.6671352,47.4901048 36.0046149,47.815499 36.0046149,48.4180809 L36.0046149,48.4421841 C36.0046149,49.0688693 35.4260783,49.5027282 34.510062,49.5027282 C33.5940458,49.5027282 32.8467694,49.1893857 32.1477043,48.6350103 C32.0512816,48.5627005 31.9187003,48.5024423 31.7138019,48.5024423 C31.3281108,48.5024423 31.0147368,48.8037333 31.0147368,49.1893857 C31.0147368,49.4304184 31.1352653,49.6352962 31.3040051,49.7558126 C32.2441271,50.4548076 33.3288832,50.8163567 34.4739035,50.8163567 Z M44.7188221,44.9954159 C44.7188221,44.5856602 44.3813425,44.260266 43.9835986,44.260266 C43.5738018,44.260266 43.248375,44.5856602 43.248375,44.9954159 L43.248375,47.9239637 C43.248375,48.912198 42.6577856,49.4906766 41.8140864,49.4906766 C40.9462815,49.4906766 40.4521148,48.9363013 40.4521148,47.948067 L40.4521148,44.9954159 C40.4521148,44.5856602 40.126688,44.260266 39.7168913,44.260266 C39.3191474,44.260266 38.9937205,44.5856602 38.9937205,44.9954159 L38.9937205,48.381926 C38.9937205,49.8642773 39.8253669,50.8284083 41.2596555,50.8284083 C42.2479888,50.8284083 42.8385782,50.3101879 43.248375,49.7076061 L43.248375,50.0330003 C43.248375,50.4427559 43.5858547,50.7560985 43.9835986,50.7560985 C44.3933953,50.7560985 44.7188221,50.4307043 44.7188221,50.0330003 L44.7188221,44.9954159 Z M46.5388018,51.9612622 L46.5388018,44.9954159 C46.5388018,44.5856602 46.8521758,44.260266 47.2619725,44.260266 C47.6717693,44.260266 47.9971961,44.5856602 47.9971961,44.9954159 L47.9971961,45.3931199 C48.4672571,44.7302799 49.1301636,44.2000078 50.1667083,44.2000078 C51.6612611,44.2000078 53.1196554,45.3810683 53.1196554,47.5021564 L53.1196554,47.5262597 C53.1196554,49.6352962 51.673314,50.8284083 50.1667083,50.8284083 C49.1060579,50.8284083 48.4431514,50.2981363 47.9971961,49.7076061 L47.9971961,51.9612622 C47.9971961,52.3710179 47.6717693,52.6843605 47.2619725,52.6843605 C46.8642286,52.6843605 46.5388018,52.3710179 46.5388018,51.9612622 Z M49.8171758,49.5629864 C50.8175619,49.5629864 51.6371554,48.77963 51.6371554,47.5262597 L51.6371554,47.5021564 C51.6371554,46.2728894 50.8055091,45.4654297 49.8171758,45.4654297 C48.8288424,45.4654297 47.9610376,46.2849411 47.9610376,47.5021564 L47.9610376,47.5262597 C47.9610376,48.7434751 48.8288424,49.5629864 49.8171758,49.5629864 Z M55.72307,47.0682975 L58.9893912,47.0682975 C58.8929684,46.1282698 58.3385375,45.3931199 57.3743099,45.3931199 C56.4823993,45.3931199 55.8556513,46.0800632 55.72307,47.0682975 Z M59.8330903,49.9968454 C59.2545538,50.5150658 58.531383,50.84046 57.5430497,50.84046 C55.6989644,50.84046 54.2767286,49.5027282 54.2767286,47.5383113 L54.2767286,47.5142081 C54.2767286,45.6944108 55.5663831,44.2000078 57.3863627,44.2000078 C59.4112408,44.2000078 60.4116269,45.8631338 60.4116269,47.3334335 C60.4116269,47.7431892 60.0982529,48.0324285 59.7246147,48.0324285 L55.7351229,48.0324285 C55.8918099,49.0688693 56.6270335,49.6473479 57.5671554,49.6473479 C58.1818505,49.6473479 58.6639643,49.4304184 59.0737611,49.0929726 C59.1822367,49.0086111 59.2786595,48.9604045 59.4473993,48.9604045 C59.7728261,48.9604045 60.0259359,49.2134889 60.0259359,49.5509348 C60.0259359,49.7317093 59.941566,49.8883806 59.8330903,49.9968454 Z M61.9061798,50.0330003 C61.9061798,50.4427559 62.2316066,50.7560985 62.6293505,50.7560985 C63.0391472,50.7560985 63.3645741,50.4307043 63.3645741,50.0330003 L63.3645741,48.1529448 C63.3645741,46.6464902 64.0756919,45.8510821 65.1122367,45.6703076 C65.4376635,45.6100494 65.6907732,45.356965 65.6907732,44.9713126 C65.6907732,44.5495053 65.4256106,44.2482144 64.9676025,44.2482144 C64.3288017,44.2482144 63.7020537,44.8507962 63.3645741,45.6462043 L63.3645741,44.9954159 C63.3645741,44.5856602 63.0391472,44.260266 62.6293505,44.260266 C62.2195537,44.260266 61.9061798,44.5856602 61.9061798,44.9954159 L61.9061798,50.0330003 Z M66.8598993,42.6935532 C66.8598993,43.1274121 67.2214846,43.4166514 67.6915456,43.4166514 C68.1616066,43.4166514 68.5231919,43.1274121 68.5231919,42.6935532 L68.5231919,42.6212433 C68.5231919,42.1873844 68.1616066,41.9101967 67.6915456,41.9101967 C67.2214846,41.9101967 66.8598993,42.1873844 66.8598993,42.6212433 L66.8598993,42.6935532 Z M66.9683749,50.0330003 C66.9683749,50.4427559 67.2938017,50.7560985 67.6915456,50.7560985 C68.1013423,50.7560985 68.4267692,50.4427559 68.4267692,50.0330003 L68.4267692,44.9954159 C68.4267692,44.5856602 68.1013423,44.260266 67.6915456,44.260266 C67.2817488,44.260266 66.9683749,44.5856602 66.9683749,44.9954159 L66.9683749,50.0330003 Z M73.356383,50.84046 C71.4158748,50.84046 69.9815862,49.3581086 69.9815862,47.550363 L69.9815862,47.5262597 C69.9815862,45.7064625 71.4279277,44.2000078 73.3804886,44.2000078 C75.3330496,44.2000078 76.7673382,45.6823592 76.7673382,47.5021564 L76.7673382,47.5262597 C76.7673382,49.3340053 75.3209968,50.84046 73.356383,50.84046 Z M73.3804886,49.5629864 C74.5616675,49.5629864 75.3089439,48.647062 75.3089439,47.550363 L75.3089439,47.5262597 C75.3089439,46.4054574 74.5014033,45.4774814 73.356383,45.4774814 C72.1872569,45.4774814 71.4399805,46.3934058 71.4399805,47.5021564 L71.4399805,47.5262597 C71.4399805,48.6350103 72.2475212,49.5629864 73.3804886,49.5629864 Z M78.2498382,50.0330003 C78.2498382,50.4427559 78.575265,50.7560985 78.9730089,50.7560985 C79.3828057,50.7560985 79.7082325,50.4307043 79.7082325,50.0330003 L79.7082325,48.1529448 C79.7082325,46.6464902 80.4193504,45.8510821 81.4558951,45.6703076 C81.7813219,45.6100494 82.0344317,45.356965 82.0344317,44.9713126 C82.0344317,44.5495053 81.7692691,44.2482144 81.311261,44.2482144 C80.6724602,44.2482144 80.0457122,44.8507962 79.7082325,45.6462043 L79.7082325,44.9954159 C79.7082325,44.5856602 79.3828057,44.260266 78.9730089,44.260266 C78.5632122,44.260266 78.2498382,44.5856602 78.2498382,44.9954159 L78.2498382,50.0330003 Z M88.9889235,50.2017232 C89.1335577,50.5873756 89.3987203,50.8163567 89.7603056,50.8163567 L89.9049398,50.8163567 C90.2665251,50.8163567 90.5437406,50.5873756 90.6763219,50.2017232 L92.5565658,44.6941249 L94.4368097,50.2017232 C94.569391,50.5873756 94.8345536,50.8163567 95.1961389,50.8163567 L95.3407731,50.8163567 C95.7023584,50.8163567 95.9795739,50.5753239 96.1121552,50.2017232 L98.6070942,43.2117736 C98.6432527,43.1274121 98.6794113,43.0068957 98.6794113,42.9104826 C98.6794113,42.5127786 98.3419316,42.199436 97.9441877,42.199436 C97.5826023,42.199436 97.3294926,42.4284171 97.221017,42.7297081 L95.2805089,48.5385972 L93.3761593,42.765863 C93.2676837,42.4163655 93.0025211,42.1753328 92.6288829,42.1753328 L92.5204072,42.1753328 C92.146769,42.1753328 91.8936593,42.4163655 91.7731308,42.765863 L89.8687812,48.5385972 L87.9282731,42.7417597 C87.8318504,42.4284171 87.5546349,42.199436 87.1930495,42.199436 C86.7832528,42.199436 86.4337203,42.5127786 86.4337203,42.9225343 C86.4337203,43.0189474 86.457826,43.1274121 86.4939845,43.2117736 L88.9889235,50.2017232 Z M102.500163,50.84046 C100.559655,50.84046 99.1253666,49.3581086 99.1253666,47.550363 L99.1253666,47.5262597 C99.1253666,45.7064625 100.571708,44.2000078 102.524269,44.2000078 C104.47683,44.2000078 105.911119,45.6823592 105.911119,47.5021564 L105.911119,47.5262597 C105.911119,49.3340053 104.464777,50.84046 102.500163,50.84046 Z M102.524269,49.5629864 C103.705448,49.5629864 104.452724,48.647062 104.452724,47.550363 L104.452724,47.5262597 C104.452724,46.4054574 103.645184,45.4774814 102.500163,45.4774814 C101.331037,45.4774814 100.583761,46.3934058 100.583761,47.5021564 L100.583761,47.5262597 C100.583761,48.6350103 101.391302,49.5629864 102.524269,49.5629864 Z M107.393619,50.0330003 C107.393619,50.4427559 107.719045,50.7560985 108.116789,50.7560985 C108.526586,50.7560985 108.852013,50.4307043 108.852013,50.0330003 L108.852013,48.1529448 C108.852013,46.6464902 109.563131,45.8510821 110.599675,45.6703076 C110.925102,45.6100494 111.178212,45.356965 111.178212,44.9713126 C111.178212,44.5495053 110.913049,44.2482144 110.455041,44.2482144 C109.81624,44.2482144 109.189493,44.8507962 108.852013,45.6462043 L108.852013,44.9954159 C108.852013,44.5856602 108.526586,44.260266 108.116789,44.260266 C107.706993,44.260266 107.393619,44.5856602 107.393619,44.9954159 L107.393619,50.0330003 Z M118.446078,42.5609852 L118.446078,50.0330003 C118.446078,50.4427559 118.120651,50.7560985 117.722907,50.7560985 C117.31311,50.7560985 116.987684,50.4427559 116.987684,50.0330003 L116.987684,49.6352962 C116.517623,50.2981363 115.854716,50.8284083 114.818171,50.8284083 C113.323619,50.8284083 111.865224,49.6352962 111.865224,47.5262597 L111.865224,47.5021564 C111.865224,45.3931199 113.299513,44.2000078 114.818171,44.2000078 C115.866769,44.2000078 116.529675,44.7182282 116.987684,45.3208101 L116.987684,42.5609852 C116.987684,42.1512295 117.31311,41.8378869 117.710854,41.8378869 C118.120651,41.8378869 118.446078,42.1512295 118.446078,42.5609852 Z M115.167704,45.4654297 C114.167318,45.4654297 113.335671,46.2367345 113.335671,47.5021564 L113.335671,47.5262597 C113.335671,48.7555267 114.179371,49.5629864 115.167704,49.5629864 C116.143984,49.5629864 117.011789,48.7434751 117.011789,47.5262597 L117.011789,47.5021564 C117.011789,46.2728894 116.143984,45.4654297 115.167704,45.4654297 Z M120.44685,50.0209486 L120.44685,43.0068957 C120.44685,42.5850884 120.772277,42.2596942 121.194127,42.2596942 L123.773436,42.2596942 C125.750102,42.2596942 126.979492,43.3804965 126.979492,45.0797773 L126.979492,45.1038806 C126.979492,46.9959877 125.460834,47.9842219 123.604696,47.9842219 L121.92935,47.9842219 L121.92935,50.0209486 C121.92935,50.4307043 121.603923,50.7560985 121.194127,50.7560985 C120.772277,50.7560985 120.44685,50.4307043 120.44685,50.0209486 Z M121.92935,46.6464902 L123.652907,46.6464902 C124.773822,46.6464902 125.472887,46.019805 125.472887,45.1400355 L125.472887,45.1159323 C125.472887,44.127698 124.761769,43.6094776 123.652907,43.6094776 L121.92935,43.6094776 L121.92935,46.6464902 Z M128.329411,50.0330003 C128.329411,50.4427559 128.654838,50.7560985 129.052582,50.7560985 C129.462379,50.7560985 129.787805,50.4307043 129.787805,50.0330003 L129.787805,48.1529448 C129.787805,46.6464902 130.498923,45.8510821 131.535468,45.6703076 C131.860895,45.6100494 132.114005,45.356965 132.114005,44.9713126 C132.114005,44.5495053 131.848842,44.2482144 131.390834,44.2482144 C130.752033,44.2482144 130.125285,44.8507962 129.787805,45.6462043 L129.787805,44.9954159 C129.787805,44.5856602 129.462379,44.260266 129.052582,44.260266 C128.642785,44.260266 128.329411,44.5856602 128.329411,44.9954159 L128.329411,50.0330003 Z M134.187094,47.0682975 L137.453415,47.0682975 C137.356992,46.1282698 136.802561,45.3931199 135.838334,45.3931199 C134.946423,45.3931199 134.319675,46.0800632 134.187094,47.0682975 Z M138.297114,49.9968454 C137.718578,50.5150658 136.995407,50.84046 136.007074,50.84046 C134.162988,50.84046 132.740753,49.5027282 132.740753,47.5383113 L132.740753,47.5142081 C132.740753,45.6944108 134.030407,44.2000078 135.850387,44.2000078 C137.875265,44.2000078 138.875651,45.8631338 138.875651,47.3334335 C138.875651,47.7431892 138.562277,48.0324285 138.188639,48.0324285 L134.199147,48.0324285 C134.355834,49.0688693 135.091057,49.6473479 136.031179,49.6473479 C136.645874,49.6473479 137.127988,49.4304184 137.537785,49.0929726 C137.646261,49.0086111 137.742683,48.9604045 137.911423,48.9604045 C138.23685,48.9604045 138.48996,49.2134889 138.48996,49.5509348 C138.48996,49.7317093 138.40559,49.8883806 138.297114,49.9968454 Z M142.551769,50.8163567 C143.877582,50.8163567 144.914126,50.1535166 144.914126,48.8157849 L144.914126,48.7916816 C144.914126,47.6467761 143.865529,47.2249688 142.93746,46.9357295 C142.190183,46.6946967 141.503171,46.5018705 141.503171,46.0318567 L141.503171,46.0077534 C141.503171,45.6462043 141.828598,45.3810683 142.395082,45.3810683 C142.841037,45.3810683 143.371362,45.5497912 143.889635,45.8149272 C143.986057,45.8631338 144.058374,45.887237 144.178903,45.887237 C144.516383,45.887237 144.781545,45.6341527 144.781545,45.2967068 C144.781545,45.0436224 144.636911,44.8507962 144.432013,44.7423315 C143.817318,44.4169373 143.1062,44.2241111 142.43124,44.2241111 C141.165692,44.2241111 140.165305,44.959261 140.165305,46.1644247 L140.165305,46.188528 C140.165305,47.4057433 141.213903,47.7913957 142.154025,48.0565317 C142.901301,48.2855129 143.576261,48.4542358 143.576261,48.9483529 L143.576261,48.9724562 C143.576261,49.3942635 143.214675,49.6593995 142.587927,49.6593995 C142.009391,49.6593995 141.37059,49.4545217 140.755895,49.044766 C140.671525,48.9965595 140.563049,48.9604045 140.442521,48.9604045 C140.105041,48.9604045 139.851931,49.2255406 139.851931,49.5509348 C139.851931,49.7919675 139.97246,49.9727421 140.129147,50.0571035 C140.86437,50.5632723 141.744228,50.8163567 142.551769,50.8163567 Z M148.469716,50.8163567 C149.795529,50.8163567 150.832074,50.1535166 150.832074,48.8157849 L150.832074,48.7916816 C150.832074,47.6467761 149.783476,47.2249688 148.855407,46.9357295 C148.108131,46.6946967 147.421118,46.5018705 147.421118,46.0318567 L147.421118,46.0077534 C147.421118,45.6462043 147.746545,45.3810683 148.313029,45.3810683 C148.758984,45.3810683 149.289309,45.5497912 149.807582,45.8149272 C149.904004,45.8631338 149.976322,45.887237 150.09685,45.887237 C150.43433,45.887237 150.699492,45.6341527 150.699492,45.2967068 C150.699492,45.0436224 150.554858,44.8507962 150.34996,44.7423315 C149.735265,44.4169373 149.024147,44.2241111 148.349187,44.2241111 C147.083639,44.2241111 146.083252,44.959261 146.083252,46.1644247 L146.083252,46.188528 C146.083252,47.4057433 147.13185,47.7913957 148.071972,48.0565317 C148.819248,48.2855129 149.494208,48.4542358 149.494208,48.9483529 L149.494208,48.9724562 C149.494208,49.3942635 149.132622,49.6593995 148.505874,49.6593995 C147.927338,49.6593995 147.288537,49.4545217 146.673842,49.044766 C146.589472,48.9965595 146.480996,48.9604045 146.360468,48.9604045 C146.022988,48.9604045 145.769879,49.2255406 145.769879,49.5509348 C145.769879,49.7919675 145.890407,49.9727421 146.047094,50.0571035 C146.782318,50.5632723 147.662175,50.8163567 148.469716,50.8163567 Z M156.11122,50.0209486 L156.11122,43.0068957 C156.11122,42.5850884 156.436647,42.2596942 156.858496,42.2596942 L159.437805,42.2596942 C161.414472,42.2596942 162.643862,43.3804965 162.643862,45.0797773 L162.643862,45.1038806 C162.643862,46.9959877 161.125204,47.9842219 159.269065,47.9842219 L157.59372,47.9842219 L157.59372,50.0209486 C157.59372,50.4307043 157.268293,50.7560985 156.858496,50.7560985 C156.436647,50.7560985 156.11122,50.4307043 156.11122,50.0209486 Z M157.59372,46.6464902 L159.317277,46.6464902 C160.438191,46.6464902 161.137256,46.019805 161.137256,45.1400355 L161.137256,45.1159323 C161.137256,44.127698 160.426139,43.6094776 159.317277,43.6094776 L157.59372,43.6094776 L157.59372,46.6464902 Z M165.030326,47.0682975 L168.296647,47.0682975 C168.200224,46.1282698 167.645793,45.3931199 166.681565,45.3931199 C165.789655,45.3931199 165.162907,46.0800632 165.030326,47.0682975 Z M169.140346,49.9968454 C168.561809,50.5150658 167.838639,50.84046 166.850305,50.84046 C165.00622,50.84046 163.583984,49.5027282 163.583984,47.5383113 L163.583984,47.5142081 C163.583984,45.6944108 164.873639,44.2000078 166.693618,44.2000078 C168.718496,44.2000078 169.718882,45.8631338 169.718882,47.3334335 C169.718882,47.7431892 169.405508,48.0324285 169.03187,48.0324285 L165.042378,48.0324285 C165.199065,49.0688693 165.934289,49.6473479 166.874411,49.6473479 C167.489106,49.6473479 167.97122,49.4304184 168.381017,49.0929726 C168.489492,49.0086111 168.585915,48.9604045 168.754655,48.9604045 C169.080082,48.9604045 169.333191,49.2134889 169.333191,49.5509348 C169.333191,49.7317093 169.248821,49.8883806 169.140346,49.9968454 Z M171.213435,50.0330003 C171.213435,50.4427559 171.538862,50.7560985 171.936606,50.7560985 C172.346403,50.7560985 172.67183,50.4307043 172.67183,50.0330003 L172.67183,48.1529448 C172.67183,46.6464902 173.382947,45.8510821 174.419492,45.6703076 C174.744919,45.6100494 174.998029,45.356965 174.998029,44.9713126 C174.998029,44.5495053 174.732866,44.2482144 174.274858,44.2482144 C173.636057,44.2482144 173.009309,44.8507962 172.67183,45.6462043 L172.67183,44.9954159 C172.67183,44.5856602 172.346403,44.260266 171.936606,44.260266 C171.526809,44.260266 171.213435,44.5856602 171.213435,44.9954159 L171.213435,50.0330003 Z M176.516687,50.0330003 C176.516687,50.4307043 176.842114,50.7560985 177.239858,50.7560985 C177.649655,50.7560985 177.975082,50.4307043 177.975082,50.0330003 L177.975082,45.5859461 L179.083943,45.5859461 C179.421423,45.5859461 179.698638,45.3208101 179.698638,44.9833642 C179.698638,44.6459184 179.433476,44.3807824 179.083943,44.3807824 L177.950976,44.3807824 L177.950976,44.0312849 C177.950976,43.3684448 178.240244,43.0671539 178.794675,43.0671539 C178.891098,43.0671539 179.011626,43.0792056 179.095996,43.0912572 C179.433476,43.1033088 179.710691,42.8261212 179.710691,42.4886753 C179.710691,42.1632811 179.469634,41.9222484 179.204472,41.8860935 C178.999573,41.8499386 178.758517,41.8258353 178.469248,41.8258353 C177.8425,41.8258353 177.372439,41.9945582 177.03496,42.332004 C176.69748,42.6694499 176.516687,43.1997219 176.516687,43.8987169 L176.516687,44.3687307 L176.263578,44.3687307 C175.926098,44.3687307 175.648882,44.6459184 175.648882,44.9833642 C175.648882,45.3208101 175.926098,45.5859461 176.263578,45.5859461 L176.516687,45.5859461 L176.516687,50.0330003 Z M183.627866,50.84046 C181.687358,50.84046 180.253069,49.3581086 180.253069,47.550363 L180.253069,47.5262597 C180.253069,45.7064625 181.699411,44.2000078 183.651972,44.2000078 C185.604533,44.2000078 187.038821,45.6823592 187.038821,47.5021564 L187.038821,47.5262597 C187.038821,49.3340053 185.59248,50.84046 183.627866,50.84046 Z M183.651972,49.5629864 C184.833151,49.5629864 185.580427,48.647062 185.580427,47.550363 L185.580427,47.5262597 C185.580427,46.4054574 184.772886,45.4774814 183.627866,45.4774814 C182.45874,45.4774814 181.711464,46.3934058 181.711464,47.5021564 L181.711464,47.5262597 C181.711464,48.6350103 182.519004,49.5629864 183.651972,49.5629864 Z M188.521321,50.0330003 C188.521321,50.4427559 188.846748,50.7560985 189.244492,50.7560985 C189.654289,50.7560985 189.979716,50.4307043 189.979716,50.0330003 L189.979716,48.1529448 C189.979716,46.6464902 190.690834,45.8510821 191.727378,45.6703076 C192.052805,45.6100494 192.305915,45.356965 192.305915,44.9713126 C192.305915,44.5495053 192.040752,44.2482144 191.582744,44.2482144 C190.943943,44.2482144 190.317195,44.8507962 189.979716,45.6462043 L189.979716,44.9954159 C189.979716,44.5856602 189.654289,44.260266 189.244492,44.260266 C188.834695,44.260266 188.521321,44.5856602 188.521321,44.9954159 L188.521321,50.0330003 Z M193.499147,50.0330003 C193.499147,50.4427559 193.824573,50.7560985 194.222317,50.7560985 C194.632114,50.7560985 194.957541,50.4427559 194.957541,50.0330003 L194.957541,47.1044524 C194.957541,46.1282698 195.511972,45.5256879 196.319512,45.5256879 C197.127053,45.5256879 197.609167,46.0800632 197.609167,47.0682975 L197.609167,50.0330003 C197.609167,50.4427559 197.934594,50.7560985 198.34439,50.7560985 C198.742134,50.7560985 199.067561,50.4427559 199.067561,50.0330003 L199.067561,47.1044524 C199.067561,46.0800632 199.634045,45.5256879 200.429533,45.5256879 C201.249126,45.5256879 201.719187,46.0680116 201.719187,47.0803491 L201.719187,50.0330003 C201.719187,50.4427559 202.044614,50.7560985 202.454411,50.7560985 C202.864207,50.7560985 203.177581,50.4427559 203.177581,50.0330003 L203.177581,46.6344386 C203.177581,45.0797773 202.333882,44.2000078 200.947805,44.2000078 C199.983577,44.2000078 199.308618,44.6459184 198.802399,45.3208101 C198.464919,44.6459184 197.814065,44.2000078 196.898049,44.2000078 C195.921768,44.2000078 195.367338,44.7302799 194.957541,45.2967068 L194.957541,44.9954159 C194.957541,44.5856602 194.632114,44.260266 194.222317,44.260266 C193.812521,44.260266 193.499147,44.5856602 193.499147,44.9954159 L193.499147,50.0330003 Z M206.781382,50.8284083 C205.588151,50.8284083 204.5275,50.141465 204.5275,48.8639914 L204.5275,48.8398882 C204.5275,47.4660015 205.600203,46.7911098 207.15502,46.7911098 C207.866138,46.7911098 208.372358,46.8995746 208.866525,47.0562459 L208.866525,46.8995746 C208.866525,45.9957018 208.312094,45.5136363 207.287602,45.5136363 C206.733171,45.5136363 206.275163,45.6100494 205.877419,45.7667207 C205.793049,45.7908239 205.720732,45.8028756 205.648415,45.8028756 C205.310935,45.8028756 205.03372,45.5377396 205.03372,45.2002937 C205.03372,44.9351577 205.214512,44.7061766 205.431464,44.6218151 C206.034106,44.392834 206.648801,44.2482144 207.480447,44.2482144 C208.432622,44.2482144 209.14374,44.5012988 209.589695,44.959261 C210.059756,45.4172232 210.276707,46.0921149 210.276707,46.9236778 L210.276707,50.0571035 C210.276707,50.4548076 209.963333,50.7560985 209.56559,50.7560985 C209.14374,50.7560985 208.854472,50.4668592 208.854472,50.141465 L208.854472,49.9004323 C208.420569,50.4186527 207.757663,50.8284083 206.781382,50.8284083 Z M207.191179,49.7678642 C208.155407,49.7678642 208.89063,49.2134889 208.89063,48.4060292 L208.89063,47.9721703 C208.516992,47.8275506 208.022825,47.7190859 207.444289,47.7190859 C206.504167,47.7190859 205.949736,48.1167899 205.949736,48.77963 L205.949736,48.8037333 C205.949736,49.4183668 206.492114,49.7678642 207.191179,49.7678642 Z M212.02437,50.0330003 C212.02437,50.4427559 212.349797,50.7560985 212.747541,50.7560985 C213.157337,50.7560985 213.482764,50.4427559 213.482764,50.0330003 L213.482764,47.1044524 C213.482764,46.1162181 214.073354,45.5256879 214.917053,45.5256879 C215.784858,45.5256879 216.279024,46.0921149 216.279024,47.0803491 L216.279024,50.0330003 C216.279024,50.4427559 216.604451,50.7560985 217.014248,50.7560985 C217.424045,50.7560985 217.737419,50.4427559 217.737419,50.0330003 L217.737419,46.6344386 C217.737419,45.1641388 216.905772,44.2000078 215.471484,44.2000078 C214.48315,44.2000078 213.892561,44.7182282 213.482764,45.3087585 L213.482764,44.9954159 C213.482764,44.5856602 213.157337,44.260266 212.747541,44.260266 C212.337744,44.260266 212.02437,44.5856602 212.02437,44.9954159 L212.02437,50.0330003 Z M222.438028,50.84046 C223.498679,50.84046 224.185691,50.4789108 224.752175,49.9365872 C224.884756,49.8281224 224.957073,49.6714511 224.957073,49.4786249 C224.957073,49.1291275 224.679858,48.8398882 224.330325,48.8398882 C224.161585,48.8398882 224.016951,48.9242496 223.932581,48.9965595 C223.534837,49.3340053 223.088882,49.5629864 222.510346,49.5629864 C221.389431,49.5629864 220.605996,48.6591136 220.605996,47.5262597 L220.605996,47.5021564 C220.605996,46.3934058 221.389431,45.4774814 222.450081,45.4774814 C223.028618,45.4774814 223.438415,45.7064625 223.812053,46.019805 C223.908476,46.0921149 224.065163,46.1644247 224.245955,46.1644247 C224.619594,46.1644247 224.920915,45.8751854 224.920915,45.5015846 C224.920915,45.2605519 224.788333,45.0797773 224.691911,44.9954159 C224.149533,44.525402 223.46252,44.2000078 222.462134,44.2000078 C220.545732,44.2000078 219.147602,45.7185141 219.147602,47.5262597 L219.147602,47.550363 C219.147602,49.3581086 220.545732,50.84046 222.438028,50.84046 Z M227.295325,47.0682975 L230.561646,47.0682975 C230.465224,46.1282698 229.910793,45.3931199 228.946565,45.3931199 C228.054654,45.3931199 227.427907,46.0800632 227.295325,47.0682975 Z M231.405346,49.9968454 C230.826809,50.5150658 230.103638,50.84046 229.115305,50.84046 C227.27122,50.84046 225.848984,49.5027282 225.848984,47.5383113 L225.848984,47.5142081 C225.848984,45.6944108 227.138638,44.2000078 228.958618,44.2000078 C230.983496,44.2000078 231.983882,45.8631338 231.983882,47.3334335 C231.983882,47.7431892 231.670508,48.0324285 231.29687,48.0324285 L227.307378,48.0324285 C227.464065,49.0688693 228.199289,49.6473479 229.139411,49.6473479 C229.754106,49.6473479 230.23622,49.4304184 230.646016,49.0929726 C230.754492,49.0086111 230.850915,48.9604045 231.019654,48.9604045 C231.345081,48.9604045 231.598191,49.2134889 231.598191,49.5509348 C231.598191,49.7317093 231.513821,49.8883806 231.405346,49.9968454 Z" id="Superior-WordPress-P" fill="#FFFFFF"></path>
            </g>
        </g>
    </g>
</svg>