<svg viewBox="0 0 21 18" xmlns="http://www.w3.org/2000/svg"><g fill="#40b1d0" fill-rule="evenodd"><path d="m1.967 5.913c.259.183 1.041.726 2.344 1.629 1.304.903 2.302 1.599 2.996 2.087.076.053.238.17.486.349.248.179.454.324.617.435.164.11.362.234.595.372.233.137.452.24.658.308.206.069.396.103.572.103h.012.012c.175 0 .366-.034.572-.103.206-.068.425-.172.658-.308.232-.137.431-.261.595-.372.164-.11.37-.255.617-.435.248-.179.41-.295.486-.349.701-.488 2.485-1.727 5.351-3.716.556-.389 1.021-.858 1.395-1.406.374-.549.56-1.124.56-1.726 0-.503-.181-.934-.543-1.292-.362-.358-.791-.537-1.286-.537h-16.832c-.587 0-1.039.198-1.355.595-.316.396-.475.892-.475 1.487 0 .48.21 1 .629 1.561.419.56.865 1 1.338 1.321"/><path d="m19.348 7.136c-2.5 1.692-4.399 3.01-5.694 3.945-.435.32-.787.57-1.058.749-.271.179-.631.362-1.081.549-.45.187-.869.28-1.258.28h-.012-.012c-.389 0-.808-.093-1.258-.28-.45-.187-.81-.37-1.081-.549-.271-.179-.623-.429-1.058-.749-1.029-.755-2.924-2.07-5.683-3.945-.435-.29-.82-.621-1.155-.995v9.08c0 .503.179.934.537 1.292.358.358.789.538 1.292.538h16.832c.503 0 .934-.179 1.292-.538.358-.358.537-.789.537-1.292v-9.08c-.328.366-.709.698-1.144.995"/></g></svg>