<svg viewBox="0 0 19 16" xmlns="http://www.w3.org/2000/svg"><g fill="none" fill-rule="evenodd"><path d="m18.15 5.733c-.259-.259-.571-.388-.937-.388v-3.973c0-.359-.131-.669-.393-.931-.262-.262-.573-.393-.931-.393-3.18 2.649-6.27 3.973-9.27 3.973h-4.966c-.455 0-.845.162-1.169.486-.324.324-.486.714-.486 1.169v1.986c0 .455.162.845.486 1.169.324.324.714.486 1.169.486h1.262c-.117.373-.193.754-.228 1.143-.034.39-.046.729-.036 1.019.01.29.062.638.155 1.045.093.407.172.714.238.921.066.207.176.533.331.978.155.445.257.747.305.905.317.29.772.481 1.366.574.593.093 1.174.053 1.743-.119.569-.172.954-.459 1.154-.859-.262-.207-.474-.381-.636-.523-.162-.141-.328-.314-.497-.517-.169-.203-.284-.393-.347-.569-.062-.176-.083-.376-.062-.6.021-.224.1-.45.238-.678-.262-.269-.4-.588-.414-.957-.014-.369.093-.716.321-1.04.228-.324.541-.552.941-.683 2.725.228 5.525 1.538 8.401 3.931.358 0 .669-.131.931-.393.262-.262.393-.573.393-.931v-3.973c.366 0 .678-.129.937-.388.258-.259.388-.571.388-.936 0-.366-.13-.678-.388-.936m-2.261 5.861c-2.697-2.062-5.345-3.238-7.946-3.528v-2.793c2.579-.283 5.228-1.466 7.946-3.549v9.87" fill="#40b1d0"/></g></svg>