<svg viewBox="0 0 39 36" xmlns="http://www.w3.org/2000/svg"><g fill="none" fill-rule="evenodd"><path d="m1273.12 126.78c-.12 0-.24-.06-.36-.12-.24-.18-.3-.6-.12-.84l5.58-7.26h-3.84c-.48 0-.9-.24-1.08-.66-.18-.42-.18-.9.12-1.26l2.16-2.82c.18-.24.6-.3.84-.12.24.18.3.6.12.84l-2.16 2.82h3.84c.48 0 .9.24 1.08.66.18.42.18.9-.12 1.26l-5.58 7.26c-.12.18-.3.24-.48.24m11.76-8.34c6.12-1.32 10.56-6.96 10.56-13.38 0-7.56-6-13.68-13.32-13.68-6 0-11.52 4.32-13.14 10.26-.06.3.12.66.42.72.3.06.66-.12.72-.42 1.44-5.4 6.48-9.36 11.94-9.36 6.72 0 12.12 5.58 12.12 12.48 0 5.88-4.02 10.98-9.6 12.18-.3.06-.54.42-.48.72.06.3.3.48.6.48h.18m-18.66 0c0-.36-.24-.6-.54-.66-1.8-.12-3.54-.9-4.8-2.22-3-3-2.94-7.98.12-11.04 2.16-2.16 5.4-2.94 8.22-1.92.3.12.66-.06.78-.36.12-.3-.06-.66-.36-.78-3.24-1.08-6.96-.24-9.48 2.28-3.54 3.54-3.6 9.24-.12 12.72 1.5 1.5 3.48 2.4 5.58 2.52h.06c.3.06.54-.18.54-.54" transform="translate(-1257-91)" fill="#C51162"/></g></svg>