<svg viewBox="0 0 37 38" xmlns="http://www.w3.org/2000/svg"><g fill="none" fill-rule="evenodd"><path d="m1107.26 119.4c0 .555-.449 1-1 1-.554 0-1-.449-1-1 0-.554.45-1 1-1 .555 0 1 .45 1 1m3.716-13.671c-.554 0-1 .449-1 1 0 .555.45 1 1 1 .555 0 1-.449 1-1 0-.555-.449-1-1-1m-4.779-12.667c-.555 0-1 .45-1 1 0 .555.449 1 1 1 .554 0 1-.449 1-1 0-.554-.45-1-1-1m-12.38-5.067c-.555 0-1 .45-1 1 0 .555.449 1 1 1 .554 0 1-.449 1-1 0-.554-.45-1-1-1m-17.818 17.949c-.554 0-1 .449-1 1 0 .555.45 1 1 1 .555 0 1-.449 1-1 0-.555-.449-1-1-1m5.354-12.667c-.555 0-1 .45-1 1 0 .555.45 1 1 1 .554 0 1-.449 1-1 0-.554-.45-1-1-1m.287 24.7c-.554 0-1 .45-1 1 0 .555.45 1 1 1 .554 0 1-.449 1-1 0-.554-.45-1-1-1m11.949 5.485c-.554 0-1 .45-1 1 0 .555.45 1 1 1 .555 0 1-.449 1-1 0-.554-.449-1-1-1m13.829-16.436c0-7.496-6.098-13.593-13.593-13.593-7.495 0-13.593 6.098-13.593 13.593 0 7.495 6.098 13.593 13.593 13.593 7.495 0 13.593-6.098 13.593-13.593m-1.267 0c0 6.796-5.53 12.326-12.326 12.326-6.797 0-12.327-5.53-12.327-12.326 0-6.796 5.53-12.327 12.327-12.327 6.796 0 12.326 5.53 12.326 12.327" transform="translate(-1075-88)" fill="#F5A623"/></g></svg>