<svg viewBox="0 0 23 18" xmlns="http://www.w3.org/2000/svg"><g fill="none" fill-rule="evenodd"><path d="m244.15 12.13c-.815.361-1.691.606-2.61.716.939-.563 1.659-1.453 1.998-2.514-.878.521-1.851.898-2.886 1.103-.829-.883-2.01-1.435-3.317-1.435-2.51 0-4.544 2.034-4.544 4.544 0 .356.04.703.118 1.035-3.777-.19-7.125-1.999-9.367-4.748-.391.671-.615 1.452-.615 2.285 0 1.576.802 2.967 2.02 3.782-.745-.024-1.445-.228-2.058-.568-.001.019-.001.038-.001.057 0 2.202 1.566 4.04 3.646 4.456-.381.104-.783.159-1.197.159-.293 0-.577-.028-.855-.081.578 1.805 2.256 3.119 4.245 3.156-1.555 1.219-3.515 1.945-5.644 1.945-.367 0-.728-.021-1.084-.063 2.01 1.289 4.399 2.041 6.966 2.041 8.359 0 12.929-6.925 12.929-12.929 0-.197-.004-.393-.013-.588.888-.64 1.658-1.44 2.268-2.352" transform="translate(-222-10)" fill="#fff"/></g></svg>