<svg viewBox="0 0 48 48" xmlns="http://www.w3.org/2000/svg"><g fill="none" fill-rule="evenodd"><path d="m247.84 188c-13.145 0-23.839 10.694-23.839 23.838 0 13.145 10.694 23.838 23.839 23.838 13.145 0 23.838-10.694 23.838-23.838 0-13.145-10.693-23.838-23.838-23.838m-11.709 42.879c.843-.346 1.89-.371 3.466-.371h2.247c.244 0 .473-.12.61-.322l2.581-3.785c.104-.151.135-.328.116-.498.85.42 1.75.668 2.68.668.952 0 1.873-.261 2.741-.701-.029.182.007.375.122.538l2.643 3.784c.137.199.363.316.605.316h2.694c1.443 0 2.281.018 2.969.336-3.42 2.125-7.45 3.356-11.764 3.356-4.29 0-8.301-1.217-11.709-3.321m19.223-25.11c.839 2.898 1.558 8-.083 9.361-.17.14-.267.349-.267.569 0 4.144-3.378 9.399-7.173 9.399-3.796 0-7.173-5.256-7.173-9.399 0-.102-.021-.203-.062-.297-2.169-4.94-.335-9.511-.316-9.556.037-.09.056-.186.056-.283 0-2.455.442-4.333 5.999-4.333.138 0 .272-.038.39-.112 1.589-.986 3.1-1.486 4.49-1.486 1.567 0 2.878.649 3.692 1.827.778 1.127.953 2.562.467 3.841-.056.149-.062.314-.018.467m5.598 24.17c-1.224-.91-2.546-.905-4.321-.905h-2.305l-2.423-3.468c-.095-.136-.23-.218-.377-.266 2.8-1.955 4.827-5.837 4.948-9.277 2.363-2.479.772-8.944.363-10.435.55-1.671.288-3.511-.718-4.968-1.081-1.566-2.869-2.464-4.906-2.464-1.614 0-3.325.537-5.089 1.597-6.28.058-7.237 2.737-7.266 5.668-.326.87-1.821 5.403.323 10.432.06 3.491 2.118 7.48 4.976 9.461-.133.052-.256.131-.343.257l-2.361 3.462h-1.857c-1.924 0-3.483.009-4.844.922-5.613-4.067-9.274-10.669-9.274-18.11 0-12.331 10.03-22.362 22.362-22.362 12.33 0 22.361 10.03 22.361 22.362 0 7.435-3.651 14.03-9.249 18.1" transform="translate(-224-188)" fill="#7a8996"/></g></svg>